<svg width="1134" height="923" viewBox="0 0 1134 923" fill="none" xmlns="http://www.w3.org/2000/svg">
<path fill-rule="evenodd" clip-rule="evenodd" d="M1323.6 47.527C1295.74 31.685 1267.89 15.842 1240.04 0C1033.3 119.314 826.563 238.629 619.826 357.943C647.515 373.929 675.204 389.916 702.893 405.902C909.794 286.444 1116.7 166.985 1323.6 47.527Z" fill="#B0D864"/>
<path fill-rule="evenodd" clip-rule="evenodd" d="M1323.6 47.5271C1323.63 49.7051 1323.67 51.8841 1323.7 54.0621C1116.86 173.428 910.01 292.793 703.163 412.159C703.074 410.073 702.984 407.987 702.893 405.902C909.794 286.444 1116.7 166.985 1323.6 47.5271Z" fill="#879E49"/>
<path fill-rule="evenodd" clip-rule="evenodd" d="M703.164 412.159C675.475 395.942 647.784 379.725 620.094 363.509C620.005 361.654 619.915 359.798 619.826 357.943C647.516 373.93 675.204 389.916 702.893 405.902C702.984 407.988 703.074 410.073 703.164 412.159Z" fill="#9BBA56"/>
<path fill-rule="evenodd" clip-rule="evenodd" d="M1525.32 170.395V188.317C1318.44 307.757 1111.56 427.198 904.68 546.639V528.728C1111.56 409.284 1318.44 289.839 1525.32 170.395Z" fill="#6E7174"/>
<path fill-rule="evenodd" clip-rule="evenodd" d="M1525.32 170.395C1458.09 131.576 1390.85 92.7577 1323.61 53.9377C1116.73 173.381 909.852 292.823 702.971 412.266L904.68 528.728C1111.56 409.284 1318.44 289.839 1525.32 170.395Z" fill="#494949"/>
<path fill-rule="evenodd" clip-rule="evenodd" d="M1074.88 322.513C1033.51 346.402 992.136 370.292 950.762 394.181C945.59 391.193 940.418 388.205 935.246 385.217C976.622 361.331 1018 337.444 1059.37 313.557C1064.54 316.543 1069.71 319.528 1074.88 322.513Z" fill="#E6E6E6"/>
<path fill-rule="evenodd" clip-rule="evenodd" d="M874.037 439.321C853.22 451.207 832.402 463.092 811.584 474.979C806.41 471.992 801.237 469.005 796.063 466.017C816.888 454.097 837.713 442.176 858.538 430.255C863.704 433.277 868.87 436.299 874.037 439.321Z" fill="#E6E6E6"/>
<path fill-rule="evenodd" clip-rule="evenodd" d="M1525.32 188.317V206.228C1318.44 325.671 1111.56 445.112 904.68 564.555V546.639C1111.56 427.198 1318.44 307.757 1525.32 188.317Z" fill="#5F4433"/>
<path fill-rule="evenodd" clip-rule="evenodd" d="M703.771 405.215C675.918 389.372 648.067 373.529 620.214 357.687C413.475 477.002 206.737 596.316 0.000488281 715.631C27.6885 731.617 55.3785 747.603 83.0675 763.59C289.969 644.132 496.87 524.673 703.771 405.215Z" fill="#B0D864"/>
<path fill-rule="evenodd" clip-rule="evenodd" d="M703.771 405.215L703.876 411.75C497.03 531.115 290.184 650.481 83.3379 769.846C83.2479 767.761 83.1569 765.675 83.0669 763.59C289.968 644.132 496.87 524.673 703.771 405.215Z" fill="#879E49"/>
<path fill-rule="evenodd" clip-rule="evenodd" d="M83.338 769.846C55.648 753.629 27.958 737.412 0.268 721.196C0.178 719.341 0.089 717.485 0 715.63C27.689 731.617 55.378 747.603 83.067 763.589C83.157 765.675 83.248 767.76 83.338 769.846Z" fill="#9BBA56"/>
<path fill-rule="evenodd" clip-rule="evenodd" d="M905.495 528.082V546.004C698.615 665.444 491.734 784.885 284.854 904.326V886.415C491.734 766.971 698.615 647.526 905.495 528.082Z" fill="#6E7174"/>
<path fill-rule="evenodd" clip-rule="evenodd" d="M905.495 528.082C838.259 489.263 771.023 450.445 703.787 411.626C496.907 531.068 290.026 650.51 83.146 769.953C150.382 808.774 217.618 847.594 284.854 886.415C491.734 766.971 698.615 647.526 905.495 528.082Z" fill="#494949"/>
<path fill-rule="evenodd" clip-rule="evenodd" d="M284.854 904.326C217.616 865.508 150.378 826.69 83.1406 787.873C83.1416 781.899 83.1436 775.927 83.1456 769.953C150.382 808.774 217.618 847.595 284.854 886.416V904.326Z" fill="#5A5C5E"/>
<path fill-rule="evenodd" clip-rule="evenodd" d="M812.399 474.333C791.711 486.277 771.023 498.222 750.335 510.166C745.163 507.18 739.991 504.194 734.819 501.208C755.506 489.265 776.195 477.323 796.882 465.38C802.055 468.365 807.227 471.349 812.399 474.333Z" fill="#E6E6E6"/>
<path fill-rule="evenodd" clip-rule="evenodd" d="M672.755 554.968C667.583 551.98 662.411 548.992 657.239 546.004C615.863 569.893 574.487 593.781 533.111 617.67C538.283 620.656 543.455 623.642 548.627 626.628C590.003 602.741 631.379 578.855 672.755 554.968Z" fill="#E6E6E6"/>
<path fill-rule="evenodd" clip-rule="evenodd" d="M455.058 680.2C413.683 704.09 372.309 727.979 330.935 751.868C325.763 748.88 320.591 745.892 315.419 742.904C356.795 719.018 398.171 695.131 439.547 671.245C444.718 674.23 449.888 677.215 455.058 680.2Z" fill="#E6E6E6"/>
<path fill-rule="evenodd" clip-rule="evenodd" d="M254.211 797.008C233.393 808.894 212.576 820.779 191.758 832.666L176.237 823.704C197.062 811.783 217.887 799.862 238.711 787.943C243.878 790.964 249.044 793.986 254.211 797.008Z" fill="#E6E6E6"/>
<mask id="mask0" mask-type="alpha" maskUnits="userSpaceOnUse" x="284" y="546" width="622" height="377">
<path fill-rule="evenodd" clip-rule="evenodd" d="M284.854 546.004H905.495V922.242H284.854V546.004Z" fill="white"/>
</mask>
<g mask="url(#mask0)">
<path fill-rule="evenodd" clip-rule="evenodd" d="M905.495 546.004V563.915C698.615 683.358 491.734 802.799 284.854 922.242V904.326C491.734 784.885 698.615 665.444 905.495 546.004Z" fill="#5F4433"/>
</g>
<path fill-rule="evenodd" clip-rule="evenodd" d="M284.854 922.242C217.618 883.424 150.382 844.604 83.1456 805.786C83.1436 799.814 83.1416 793.844 83.1406 787.873C150.378 826.69 217.616 865.508 284.854 904.326V922.242Z" fill="#4C362A"/>
<path fill-rule="evenodd" clip-rule="evenodd" d="M591.962 416.865C591.962 418.581 591.962 420.297 591.962 422.013C596.42 424.588 600.879 427.162 605.338 429.737V424.589C600.879 422.014 596.421 419.439 591.962 416.865Z" fill="#C1C1C1"/>
<path fill-rule="evenodd" clip-rule="evenodd" d="M591.962 416.864C596.421 414.29 600.88 411.716 605.339 409.141C609.797 411.715 614.256 414.289 618.715 416.864L605.338 424.588C600.879 422.013 596.421 419.438 591.962 416.864Z" fill="#F2F3F4"/>
<path fill-rule="evenodd" clip-rule="evenodd" d="M618.715 416.864V422.013C614.256 424.587 609.797 427.162 605.338 429.737V424.588L618.715 416.864Z" fill="#A5A5A5"/>
<path fill-rule="evenodd" clip-rule="evenodd" d="M600.879 416.864C600.879 371.377 600.88 325.889 600.88 280.401C602.366 281.259 603.852 282.117 605.338 282.975C605.338 328.463 605.337 373.95 605.337 419.438C603.851 418.58 602.365 417.722 600.879 416.864Z" fill="#D3D3D3"/>
<path fill-rule="evenodd" clip-rule="evenodd" d="M605.338 419.439C606.824 418.581 608.31 417.723 609.796 416.865C609.797 371.377 609.797 325.89 609.797 280.401C608.312 281.26 606.825 282.118 605.339 282.976C605.338 328.463 605.338 373.951 605.338 419.439Z" fill="#C1C1C1"/>
<path fill-rule="evenodd" clip-rule="evenodd" d="M600.881 280.402C602.367 279.544 603.853 278.686 605.339 277.828C606.826 278.686 608.312 279.544 609.798 280.402C608.312 281.26 606.825 282.118 605.339 282.976C603.853 282.118 602.367 281.26 600.881 280.402Z" fill="#F2F3F4"/>
<path fill-rule="evenodd" clip-rule="evenodd" d="M605.09 231.785C594.372 225.446 585.487 230.4 585.245 242.849C585.003 255.299 593.494 270.53 604.212 276.868C614.929 283.207 623.814 278.254 624.057 265.805C624.299 253.355 615.808 238.124 605.09 231.785Z" fill="#1D6382"/>
<path fill-rule="evenodd" clip-rule="evenodd" d="M618.068 278.393C610.327 282.709 598.01 275.424 590.611 262.154C583.213 248.883 583.491 234.576 591.233 230.26C598.974 225.944 611.291 233.229 618.689 246.499C626.088 259.77 625.809 274.077 618.068 278.393ZM588.584 225.51C579.3 230.685 578.967 247.783 587.84 263.698C596.714 279.613 611.432 288.319 620.716 283.143C630 277.967 630.333 260.87 621.46 244.955C612.588 229.039 597.868 220.334 588.584 225.51Z" fill="#CA1933"/>
<path fill-rule="evenodd" clip-rule="evenodd" d="M602.755 250.177C604.031 252.886 605.307 255.594 606.584 258.303C611.597 255.498 616.61 252.693 621.623 249.888L617.35 242.222C612.484 244.874 607.62 247.525 602.755 250.177Z" fill="#CA1933"/>
<path fill-rule="evenodd" clip-rule="evenodd" d="M587.677 258.766L591.95 266.432C597.15 263.571 602.349 260.71 607.549 257.85L602.756 250.177C597.729 253.04 592.703 255.903 587.677 258.766Z" fill="#CA1933"/>
<path fill-rule="evenodd" clip-rule="evenodd" d="M587.749 230.504C592.318 239.039 596.888 247.573 601.457 256.108L607.845 252.546L593.422 227.478C591.532 228.487 589.64 229.495 587.749 230.504Z" fill="#CA1933"/>
<path fill-rule="evenodd" clip-rule="evenodd" d="M601.457 256.108C606.243 264.568 611.028 273.029 615.813 281.489C617.755 280.355 619.697 279.22 621.638 278.085C617.04 269.572 612.443 261.059 607.845 252.546L601.457 256.108Z" fill="#CA1933"/>
<path fill-rule="evenodd" clip-rule="evenodd" d="M601.652 234.309C590.934 227.97 582.049 232.924 581.807 245.373C581.565 257.823 590.056 273.054 600.774 279.392C611.491 285.732 620.376 280.778 620.618 268.329C620.86 255.879 612.369 240.648 601.652 234.309Z" fill="#2785AF"/>
<path fill-rule="evenodd" clip-rule="evenodd" d="M614.631 280.918C606.889 285.234 594.572 277.949 587.174 264.679C579.776 251.408 580.054 237.101 587.795 232.785C595.536 228.469 607.853 235.754 615.252 249.024C622.651 262.295 622.371 276.603 614.631 280.918ZM585.147 228.035C575.863 233.211 575.53 250.308 584.403 266.223C593.276 282.138 607.995 290.844 617.278 285.668C626.563 280.492 626.896 263.395 618.023 247.48C609.15 231.564 594.43 222.859 585.147 228.035Z" fill="#F71E3E"/>
<path fill-rule="evenodd" clip-rule="evenodd" d="M599.318 252.701C600.594 255.41 601.87 258.119 603.147 260.828C608.16 258.022 613.173 255.217 618.187 252.412L613.912 244.746C609.048 247.398 604.183 250.049 599.318 252.701Z" fill="#F71E3E"/>
<path fill-rule="evenodd" clip-rule="evenodd" d="M584.24 261.29L588.513 268.956C593.713 266.095 598.912 263.234 604.112 260.374L599.319 252.701C594.292 255.564 589.266 258.427 584.24 261.29Z" fill="#F71E3E"/>
<path fill-rule="evenodd" clip-rule="evenodd" d="M584.311 233.028C588.88 241.563 593.45 250.097 598.019 258.632L604.407 255.07L589.984 230.002C588.093 231.011 586.202 232.019 584.311 233.028Z" fill="#F71E3E"/>
<path fill-rule="evenodd" clip-rule="evenodd" d="M598.019 258.632C602.805 267.092 607.59 275.553 612.375 284.013L618.2 280.609C613.602 272.096 609.005 263.583 604.407 255.07L598.019 258.632Z" fill="#F71E3E"/>
<path fill-rule="evenodd" clip-rule="evenodd" d="M584.409 228.485C586.049 227.272 587.248 226.385 587.456 226.234C587.489 226.209 587.559 226.158 587.652 226.093C587.753 226.022 587.881 225.935 588.032 225.839C588.262 225.693 588.455 225.582 588.584 225.51C589.207 225.17 590.096 224.752 591.217 224.445C591.661 224.323 593.044 223.972 595.01 224.024C597.01 224.076 599.381 224.541 602.308 225.834C605.32 227.165 607.832 228.891 610.285 231.013C611.885 232.397 616.525 236.601 620.742 243.706C622.305 246.34 625.441 252.121 627.046 259.612C627.567 262.05 628.003 265.024 627.886 268.504C627.771 271.856 627.206 273.862 626.936 274.723C626.721 275.416 626.189 277.08 625.146 278.814C622.999 282.385 619.824 284.35 617.847 285.328C618.764 284.714 620.089 283.67 621.258 282.03C621.443 281.769 622.131 280.784 622.839 279.067C623.352 277.821 624.116 275.611 624.387 272.189C624.614 269.3 624.397 266.829 624.071 264.739C622.778 256.443 619.2 249.647 618.366 248.103C613.945 239.925 608.715 235.175 607.353 233.977C605.204 232.088 602.671 230.236 599.54 228.692C597.571 227.72 595.945 226.919 593.716 226.611C589.798 226.072 586.449 227.394 584.409 228.485Z" fill="#E6E6E6"/>
<path fill-rule="evenodd" clip-rule="evenodd" d="M201.992 856.569C134.754 817.751 67.5161 778.933 0.278066 740.115C0.275066 733.809 0.271066 727.503 0.268066 721.196C67.5091 760.35 134.75 799.505 201.992 838.658V856.569Z" fill="#5A5C5E"/>
<path fill-rule="evenodd" clip-rule="evenodd" d="M201.992 874.485C134.756 835.666 67.5188 796.847 0.283832 758.028C0.281832 752.057 0.279832 746.086 0.277832 740.115C67.5158 778.933 134.754 817.751 201.992 856.569V874.485Z" fill="#4C362A"/>
<path fill-rule="evenodd" clip-rule="evenodd" d="M321.673 601.627L277.646 627.048C262.97 618.574 248.295 610.101 233.619 601.627C248.294 593.154 262.969 584.682 277.644 576.209L321.673 601.627Z" fill="#F8F6F6"/>
<path fill-rule="evenodd" clip-rule="evenodd" d="M321.673 601.628V607.278C306.997 615.751 292.32 624.224 277.644 632.697C277.645 630.814 277.645 628.931 277.646 627.049L321.673 601.628Z" fill="#E6E3DE"/>
<path fill-rule="evenodd" clip-rule="evenodd" d="M277.644 632.696C262.969 624.223 248.293 615.75 233.617 607.277C233.618 605.394 233.618 603.51 233.619 601.627C248.294 610.101 262.97 618.574 277.645 627.048C277.645 628.93 277.644 630.813 277.644 632.696Z" fill="#77686C"/>
<path fill-rule="evenodd" clip-rule="evenodd" d="M277.337 626.87C277.44 628.812 277.542 630.754 277.644 632.696H267.86L223.833 607.277C227.095 605.394 230.357 603.511 233.619 601.627C248.191 610.041 262.764 618.456 277.337 626.87Z" fill="#1A1A1A"/>
<path fill-rule="evenodd" clip-rule="evenodd" d="M311.889 601.627V595.979C300.474 602.569 289.06 609.16 277.645 615.751C277.645 617.633 277.644 619.516 277.644 621.398C289.059 614.808 300.474 608.217 311.889 601.627Z" fill="#90BA45"/>
<path fill-rule="evenodd" clip-rule="evenodd" d="M277.645 615.751C266.23 609.16 254.816 602.569 243.402 595.979V601.629C254.816 608.219 266.23 614.809 277.644 621.399C277.644 619.516 277.645 617.633 277.645 615.751Z" fill="#81A03F"/>
<path fill-rule="evenodd" clip-rule="evenodd" d="M311.889 595.979L277.644 576.209C266.23 582.799 254.816 589.389 243.402 595.979C254.817 602.569 266.231 609.16 277.645 615.751C289.06 609.16 300.474 602.569 311.889 595.979Z" fill="#A0D64C"/>
<path fill-rule="evenodd" clip-rule="evenodd" d="M302.106 596.014C295.65 599.741 289.195 603.468 282.739 607.194C281.042 606.299 279.345 605.404 277.647 604.51L277.572 587.561C279.204 588.51 280.835 589.458 282.467 590.407C289.013 586.627 295.559 582.847 302.105 579.068C302.105 584.716 302.106 590.365 302.106 596.014Z" fill="#90BA45"/>
<path fill-rule="evenodd" clip-rule="evenodd" d="M277.572 587.562L272.716 590.345L253.185 579.069V596.056C259.708 599.808 266.23 603.56 272.753 607.312L277.647 604.51L277.572 587.562Z" fill="#81A03F"/>
<path fill-rule="evenodd" clip-rule="evenodd" d="M302.104 573.42L282.537 562.122L277.593 564.933C275.979 563.996 274.366 563.059 272.752 562.122C266.23 565.888 259.708 569.654 253.185 573.421C254.814 574.378 256.444 575.335 258.074 576.292C256.444 577.218 254.814 578.143 253.185 579.069L272.716 590.345L277.572 587.562C279.203 588.51 280.834 589.459 282.466 590.407C289.012 586.628 295.558 582.848 302.104 579.068C300.462 578.139 298.82 577.209 297.179 576.279C298.82 575.326 300.462 574.373 302.104 573.42Z" fill="#A0D64C"/>
<path fill-rule="evenodd" clip-rule="evenodd" d="M277.572 587.562L277.647 604.51C279.277 605.46 280.907 606.41 282.537 607.36L282.467 590.407C280.835 589.459 279.203 588.51 277.572 587.562Z" fill="#81A03F"/>
<path fill-rule="evenodd" clip-rule="evenodd" d="M277.572 587.629C277.597 593.256 277.621 598.883 277.646 604.51L272.752 607.312L272.716 590.345C274.334 589.44 275.953 588.534 277.572 587.629Z" fill="#90BA45"/>
<path fill-rule="evenodd" clip-rule="evenodd" d="M302.023 573.512C302.05 575.38 302.077 577.248 302.104 579.116C300.473 578.174 298.842 577.232 297.211 576.29C298.815 575.364 300.419 574.438 302.023 573.512Z" fill="#90BA45"/>
<path fill-rule="evenodd" clip-rule="evenodd" d="M253.185 573.421C254.814 574.378 256.444 575.335 258.074 576.292C256.457 577.225 254.841 578.158 253.225 579.092C253.211 577.201 253.198 575.311 253.185 573.421Z" fill="#81A03F"/>
<path fill-rule="evenodd" clip-rule="evenodd" d="M287.431 576.244C287.431 574.362 287.43 572.479 287.43 570.596C284.169 572.479 280.908 574.363 277.647 576.246V581.893C280.909 580.01 284.17 578.127 287.431 576.244Z" fill="#C2DD22"/>
<path fill-rule="evenodd" clip-rule="evenodd" d="M287.429 570.596C284.168 568.714 280.907 566.831 277.646 564.948C274.385 566.831 271.124 568.714 267.863 570.597C271.124 572.48 274.385 574.363 277.646 576.246C280.907 574.363 284.168 572.479 287.429 570.596Z" fill="#E1F240"/>
<path fill-rule="evenodd" clip-rule="evenodd" d="M272.753 607.312C269.586 607.354 266.419 607.397 263.251 607.439L262.97 612.927C267.861 615.75 272.753 618.575 277.644 621.399C274.467 621.447 271.291 621.496 268.114 621.544C256.615 614.906 245.117 608.267 233.619 601.627C240.141 597.862 246.663 594.097 253.185 590.331C253.136 592.37 253.087 594.408 253.039 596.447C259.61 600.068 266.182 603.69 272.753 607.312Z" fill="#1A1A1A"/>
<path fill-rule="evenodd" clip-rule="evenodd" d="M242.224 650.822C227.548 659.296 212.872 667.769 198.197 676.242C183.521 667.769 168.846 659.296 154.17 650.822C168.845 642.349 183.52 633.876 198.195 625.404C212.871 633.876 227.548 642.349 242.224 650.822Z" fill="#F8F6F6"/>
<path fill-rule="evenodd" clip-rule="evenodd" d="M242.224 650.822V656.472L198.195 681.89C198.196 680.008 198.196 678.125 198.197 676.242C212.872 667.769 227.548 659.296 242.224 650.822Z" fill="#E6E3DE"/>
<path fill-rule="evenodd" clip-rule="evenodd" d="M198.195 681.89C183.519 673.417 168.844 664.944 154.168 656.471C154.169 654.588 154.169 652.704 154.17 650.822C168.845 659.295 183.521 667.768 198.196 676.242C198.196 678.125 198.195 680.008 198.195 681.89Z" fill="#77686C"/>
<path fill-rule="evenodd" clip-rule="evenodd" d="M197.888 676.065C197.99 678.007 198.093 679.949 198.195 681.891H188.411C173.735 673.418 159.059 664.945 144.384 656.472C147.646 654.588 150.908 652.705 154.169 650.822C168.742 659.236 183.315 667.65 197.888 676.065Z" fill="#1A1A1A"/>
<path fill-rule="evenodd" clip-rule="evenodd" d="M232.44 650.822V645.173C221.025 651.764 209.611 658.355 198.196 664.945C198.196 666.828 198.195 668.71 198.195 670.593L232.44 650.822Z" fill="#90BA45"/>
<path fill-rule="evenodd" clip-rule="evenodd" d="M198.197 664.945C186.783 658.355 175.368 651.764 163.954 645.173V650.823C175.368 657.413 186.782 664.003 198.196 670.593C198.196 668.71 198.197 666.828 198.197 664.945Z" fill="#81A03F"/>
<path fill-rule="evenodd" clip-rule="evenodd" d="M232.44 645.173L198.195 625.403C186.781 631.993 175.367 638.583 163.953 645.173C175.368 651.764 186.782 658.355 198.196 664.945C209.611 658.355 221.025 651.764 232.44 645.173Z" fill="#A0D64C"/>
<path fill-rule="evenodd" clip-rule="evenodd" d="M222.657 645.208C216.201 648.935 209.746 652.662 203.29 656.389C201.593 655.494 199.896 654.599 198.198 653.704L198.123 636.755C199.755 637.704 201.386 638.652 203.018 639.601L222.656 628.262C222.656 633.911 222.657 639.56 222.657 645.208Z" fill="#90BA45"/>
<path fill-rule="evenodd" clip-rule="evenodd" d="M198.123 636.755L193.267 639.538L173.736 628.262V645.249C180.259 649.001 186.781 652.754 193.304 656.505L198.198 653.703L198.123 636.755Z" fill="#81A03F"/>
<path fill-rule="evenodd" clip-rule="evenodd" d="M222.655 622.613L203.088 611.315C201.44 612.252 199.792 613.189 198.144 614.126C196.53 613.189 194.917 612.252 193.303 611.316L173.736 622.614C175.365 623.571 176.995 624.528 178.625 625.485C176.995 626.411 175.365 627.337 173.736 628.262L193.267 639.538L198.123 636.755C199.754 637.704 201.385 638.652 203.017 639.601L222.655 628.261C221.013 627.332 219.371 626.402 217.73 625.472C219.371 624.519 221.013 623.566 222.655 622.613Z" fill="#A0D64C"/>
<path fill-rule="evenodd" clip-rule="evenodd" d="M198.123 636.755L198.198 653.703C199.828 654.653 201.457 655.603 203.088 656.553C203.064 650.902 203.041 645.251 203.018 639.601C201.386 638.652 199.754 637.704 198.123 636.755Z" fill="#81A03F"/>
<path fill-rule="evenodd" clip-rule="evenodd" d="M198.124 636.823C198.149 642.45 198.174 648.077 198.198 653.704L193.304 656.506L193.268 639.539C194.886 638.634 196.505 637.728 198.124 636.823Z" fill="#90BA45"/>
<path fill-rule="evenodd" clip-rule="evenodd" d="M222.575 622.706C222.602 624.574 222.629 626.442 222.656 628.31C221.025 627.368 219.394 626.426 217.763 625.484C219.367 624.558 220.971 623.632 222.575 622.706Z" fill="#90BA45"/>
<path fill-rule="evenodd" clip-rule="evenodd" d="M173.737 622.614C175.366 623.571 176.996 624.528 178.626 625.485C177.009 626.419 175.393 627.352 173.777 628.285C173.763 626.395 173.75 624.505 173.737 622.614Z" fill="#81A03F"/>
<path fill-rule="evenodd" clip-rule="evenodd" d="M207.982 625.438C207.982 623.555 207.981 621.672 207.981 619.79C204.72 621.673 201.459 623.556 198.198 625.439V631.086C201.459 629.204 204.721 627.321 207.982 625.438Z" fill="#C2DD22"/>
<path fill-rule="evenodd" clip-rule="evenodd" d="M198.198 631.087L188.414 625.44V619.792L198.198 625.44V631.087Z" fill="#B2C123"/>
<path fill-rule="evenodd" clip-rule="evenodd" d="M207.981 619.79C204.72 617.907 201.46 616.025 198.198 614.142C194.937 616.025 191.676 617.908 188.415 619.791L198.198 625.439C201.46 623.556 204.72 621.673 207.981 619.79Z" fill="#E1F240"/>
<path fill-rule="evenodd" clip-rule="evenodd" d="M193.304 656.506C190.137 656.548 186.97 656.591 183.802 656.633C183.708 658.463 183.615 660.292 183.521 662.121C188.412 664.945 193.304 667.769 198.195 670.593C195.018 670.642 191.842 670.69 188.665 670.739C177.166 664.1 165.668 657.461 154.17 650.822L173.736 639.525C173.687 641.564 173.639 643.602 173.59 645.641C180.161 649.262 186.733 652.884 193.304 656.506Z" fill="#1A1A1A"/>
<path fill-rule="evenodd" clip-rule="evenodd" d="M155.387 700.631C140.711 709.105 126.035 717.578 111.36 726.052C96.684 717.578 82.009 709.105 67.333 700.631C82.008 692.158 96.683 683.686 111.358 675.213C126.034 683.686 140.711 692.158 155.387 700.631Z" fill="#F8F6F6"/>
<path fill-rule="evenodd" clip-rule="evenodd" d="M155.387 700.631V706.281C140.711 714.754 126.034 723.227 111.358 731.699C111.359 729.817 111.359 727.934 111.36 726.052C126.035 717.578 140.711 709.105 155.387 700.631Z" fill="#E6E3DE"/>
<path fill-rule="evenodd" clip-rule="evenodd" d="M111.358 731.699C96.6831 723.226 82.0071 714.753 67.3311 706.28C67.3321 704.397 67.3321 702.514 67.3331 700.631C82.0081 709.104 96.6841 717.578 111.359 726.052C111.359 727.934 111.358 729.817 111.358 731.699Z" fill="#77686C"/>
<path fill-rule="evenodd" clip-rule="evenodd" d="M111.051 725.874C111.153 727.816 111.256 729.758 111.358 731.7H101.574C86.8984 723.227 72.2224 714.754 57.5474 706.281C60.8094 704.397 64.0714 702.515 67.3324 700.631C81.9054 709.045 96.4784 717.459 111.051 725.874Z" fill="#1A1A1A"/>
<path fill-rule="evenodd" clip-rule="evenodd" d="M145.603 700.631V694.982C134.188 701.573 122.774 708.164 111.359 714.755C111.359 716.637 111.358 718.52 111.358 720.402C122.773 713.812 134.188 707.221 145.603 700.631Z" fill="#90BA45"/>
<path fill-rule="evenodd" clip-rule="evenodd" d="M111.36 714.755C99.9457 708.164 88.5307 701.573 77.1167 694.983V700.633C88.5307 707.223 99.9447 713.813 111.359 720.402C111.359 718.52 111.36 716.637 111.36 714.755Z" fill="#81A03F"/>
<path fill-rule="evenodd" clip-rule="evenodd" d="M145.603 694.982C134.188 688.392 122.773 681.802 111.358 675.212C99.9442 681.802 88.5302 688.392 77.1162 694.982C88.5312 701.573 99.9452 708.164 111.359 714.754C122.774 708.164 134.188 701.573 145.603 694.982Z" fill="#A0D64C"/>
<path fill-rule="evenodd" clip-rule="evenodd" d="M135.82 695.018C129.364 698.745 122.909 702.471 116.453 706.198L111.362 703.513C111.336 697.864 111.311 692.214 111.286 686.565C112.918 687.514 114.55 688.462 116.181 689.411C122.727 685.631 129.273 681.851 135.819 678.072C135.819 683.72 135.82 689.369 135.82 695.018Z" fill="#90BA45"/>
<path fill-rule="evenodd" clip-rule="evenodd" d="M111.286 686.565L106.43 689.348C99.9204 685.59 93.4104 681.831 86.8994 678.072V695.059C93.4224 698.812 99.9444 702.564 106.467 706.315C108.098 705.381 109.73 704.447 111.361 703.513C111.336 697.864 111.311 692.214 111.286 686.565Z" fill="#81A03F"/>
<path fill-rule="evenodd" clip-rule="evenodd" d="M135.818 672.423C129.296 668.656 122.773 664.89 116.251 661.124C114.603 662.062 112.955 662.999 111.307 663.936C109.694 662.999 108.08 662.062 106.466 661.125L86.8994 672.423C88.5284 673.381 90.1584 674.338 91.7884 675.295C90.1584 676.22 88.5284 677.146 86.8994 678.072C93.4094 681.831 99.9204 685.589 106.43 689.348L111.286 686.565C112.917 687.513 114.549 688.462 116.18 689.41C122.726 685.631 129.272 681.851 135.818 678.071C134.176 677.142 132.534 676.212 130.893 675.282C132.534 674.329 134.176 673.376 135.818 672.423Z" fill="#A0D64C"/>
<path fill-rule="evenodd" clip-rule="evenodd" d="M111.287 686.564C111.312 692.213 111.337 697.863 111.362 703.512C112.992 704.462 114.622 705.412 116.252 706.362C116.228 700.711 116.205 695.061 116.182 689.41C114.55 688.461 112.918 687.513 111.287 686.564Z" fill="#81A03F"/>
<path fill-rule="evenodd" clip-rule="evenodd" d="M111.287 686.633C111.312 692.26 111.337 697.886 111.362 703.513C109.73 704.447 108.099 705.382 106.467 706.316L106.431 689.348C108.049 688.443 109.668 687.538 111.287 686.633Z" fill="#90BA45"/>
<path fill-rule="evenodd" clip-rule="evenodd" d="M135.738 672.515C135.765 674.383 135.792 676.251 135.819 678.119C134.188 677.177 132.557 676.235 130.926 675.293C132.53 674.367 134.134 673.441 135.738 672.515Z" fill="#90BA45"/>
<path fill-rule="evenodd" clip-rule="evenodd" d="M86.8999 672.424C88.5289 673.381 90.1589 674.338 91.7889 675.295C90.1719 676.229 88.5559 677.162 86.9399 678.095C86.9259 676.205 86.9129 674.315 86.8999 672.424Z" fill="#81A03F"/>
<path fill-rule="evenodd" clip-rule="evenodd" d="M121.145 675.247C121.145 673.364 121.144 671.482 121.144 669.599C117.883 671.482 114.622 673.366 111.361 675.248V680.895L121.145 675.247Z" fill="#C2DD22"/>
<path fill-rule="evenodd" clip-rule="evenodd" d="M111.362 680.896C108.1 679.014 104.839 677.131 101.578 675.249V669.601C104.839 671.483 108.1 673.366 111.362 675.249V680.896Z" fill="#B2C123"/>
<path fill-rule="evenodd" clip-rule="evenodd" d="M121.144 669.599C117.883 667.716 114.623 665.834 111.362 663.951C108.1 665.834 104.839 667.717 101.578 669.6C104.839 671.483 108.1 673.366 111.362 675.248C114.623 673.366 117.883 671.482 121.144 669.599Z" fill="#E1F240"/>
<path fill-rule="evenodd" clip-rule="evenodd" d="M106.467 706.315C103.3 706.357 100.133 706.4 96.965 706.443C96.871 708.272 96.778 710.101 96.684 711.93C101.575 714.754 106.467 717.578 111.358 720.402C108.181 720.451 105.005 720.499 101.828 720.548C90.329 713.909 78.831 707.27 67.333 700.631C73.855 696.865 80.377 693.1 86.899 689.335C86.85 691.373 86.802 693.411 86.753 695.45C93.324 699.072 99.896 702.693 106.467 706.315Z" fill="#1A1A1A"/>
<path fill-rule="evenodd" clip-rule="evenodd" d="M592.713 441.181L548.686 466.602C534.01 458.128 519.335 449.655 504.659 441.181C519.334 432.708 534.009 424.236 548.684 415.763L592.713 441.181Z" fill="#F8F6F6"/>
<path fill-rule="evenodd" clip-rule="evenodd" d="M592.713 441.181V446.831C578.037 455.305 563.36 463.777 548.684 472.25C548.685 470.367 548.685 468.485 548.686 466.602L592.713 441.181Z" fill="#E6E3DE"/>
<path fill-rule="evenodd" clip-rule="evenodd" d="M548.684 472.25C534.009 463.777 519.333 455.304 504.657 446.831L504.659 441.181C519.334 449.655 534.01 458.128 548.685 466.602C548.685 468.485 548.684 470.367 548.684 472.25Z" fill="#77686C"/>
<path fill-rule="evenodd" clip-rule="evenodd" d="M548.377 466.423C548.479 468.365 548.582 470.307 548.684 472.249H538.9C524.224 463.776 509.548 455.303 494.873 446.83L504.658 441.18C519.231 449.595 533.804 458.009 548.377 466.423Z" fill="#1A1A1A"/>
<path fill-rule="evenodd" clip-rule="evenodd" d="M582.929 441.181V435.533C571.514 442.123 560.1 448.714 548.685 455.305C548.685 457.187 548.684 459.07 548.684 460.952C560.099 454.362 571.514 447.772 582.929 441.181Z" fill="#90BA45"/>
<path fill-rule="evenodd" clip-rule="evenodd" d="M548.685 455.304C537.271 448.713 525.856 442.123 514.442 435.532V441.182C525.856 447.772 537.27 454.362 548.684 460.952C548.684 459.069 548.685 457.187 548.685 455.304Z" fill="#81A03F"/>
<path fill-rule="evenodd" clip-rule="evenodd" d="M582.929 435.532L548.684 415.762C537.27 422.352 525.856 428.942 514.442 435.532C525.857 442.123 537.271 448.713 548.685 455.304C560.1 448.713 571.514 442.123 582.929 435.532Z" fill="#A0D64C"/>
<path fill-rule="evenodd" clip-rule="evenodd" d="M573.146 435.568C566.69 439.295 560.235 443.022 553.779 446.748C552.082 445.854 550.385 444.959 548.688 444.064C548.662 438.414 548.637 432.765 548.612 427.115C550.244 428.064 551.875 429.012 553.507 429.961L573.145 418.622C573.145 424.271 573.146 429.919 573.146 435.568Z" fill="#90BA45"/>
<path fill-rule="evenodd" clip-rule="evenodd" d="M548.612 427.115L543.756 429.898L524.225 418.622V435.609C530.748 439.361 537.27 443.113 543.793 446.865C545.424 445.931 547.055 444.997 548.687 444.063C548.662 438.414 548.637 432.764 548.612 427.115Z" fill="#81A03F"/>
<path fill-rule="evenodd" clip-rule="evenodd" d="M573.144 412.973L553.577 401.675L548.633 404.486C547.019 403.549 545.406 402.612 543.792 401.676L524.225 412.974C525.854 413.931 527.484 414.888 529.114 415.845C527.484 416.771 525.854 417.697 524.225 418.622L543.756 429.898L548.612 427.115C550.243 428.063 551.875 429.012 553.506 429.96C560.052 426.181 566.598 422.401 573.144 418.621C571.502 417.692 569.86 416.762 568.219 415.832C569.86 414.879 571.502 413.926 573.144 412.973Z" fill="#A0D64C"/>
<path fill-rule="evenodd" clip-rule="evenodd" d="M548.612 427.115C548.637 432.764 548.662 438.414 548.687 444.063C550.317 445.013 551.947 445.963 553.577 446.913L553.507 429.96C551.875 429.012 550.243 428.063 548.612 427.115Z" fill="#81A03F"/>
<path fill-rule="evenodd" clip-rule="evenodd" d="M548.612 427.182L548.687 444.063C547.055 444.997 545.424 445.931 543.792 446.865L543.756 429.898C545.374 428.993 546.993 428.087 548.612 427.182Z" fill="#90BA45"/>
<path fill-rule="evenodd" clip-rule="evenodd" d="M573.063 413.066C573.09 414.934 573.117 416.802 573.144 418.67C571.513 417.728 569.882 416.786 568.251 415.844C569.855 414.918 571.459 413.992 573.063 413.066Z" fill="#90BA45"/>
<path fill-rule="evenodd" clip-rule="evenodd" d="M524.225 412.974C525.854 413.931 527.484 414.888 529.114 415.845C527.497 416.778 525.881 417.712 524.265 418.645C524.251 416.755 524.238 414.864 524.225 412.974Z" fill="#81A03F"/>
<path fill-rule="evenodd" clip-rule="evenodd" d="M558.471 415.797C558.471 413.915 558.47 412.032 558.47 410.15C555.209 412.032 551.948 413.916 548.687 415.799V421.446C551.949 419.563 555.21 417.68 558.471 415.797Z" fill="#C2DD22"/>
<path fill-rule="evenodd" clip-rule="evenodd" d="M548.687 421.446C545.425 419.564 542.164 417.681 538.903 415.799V410.15C542.164 412.033 545.425 413.916 548.687 415.799V421.446Z" fill="#B2C123"/>
<path fill-rule="evenodd" clip-rule="evenodd" d="M558.469 410.149C555.208 408.266 551.948 406.383 548.687 404.501C545.425 406.384 542.164 408.267 538.903 410.149C542.164 412.033 545.425 413.916 548.687 415.798C551.948 413.915 555.208 412.032 558.469 410.149Z" fill="#E1F240"/>
<path fill-rule="evenodd" clip-rule="evenodd" d="M543.793 446.865C540.626 446.907 537.459 446.95 534.291 446.992C534.197 448.822 534.104 450.651 534.01 452.48C538.901 455.304 543.793 458.128 548.684 460.952C545.507 461 542.331 461.049 539.154 461.098C527.655 454.459 516.157 447.82 504.659 441.18C511.181 437.415 517.703 433.65 524.225 429.884C524.176 431.923 524.128 433.961 524.079 436C530.65 439.621 537.222 443.243 543.793 446.865Z" fill="#1A1A1A"/>
<path fill-rule="evenodd" clip-rule="evenodd" d="M513.264 490.375C498.588 498.849 483.912 507.322 469.237 515.796C454.561 507.322 439.886 498.849 425.21 490.375C439.885 481.902 454.56 473.43 469.235 464.957C483.911 473.43 498.588 481.902 513.264 490.375Z" fill="#F8F6F6"/>
<path fill-rule="evenodd" clip-rule="evenodd" d="M513.264 490.375V496.025C498.588 504.498 483.911 512.971 469.235 521.443C469.236 519.561 469.236 517.678 469.237 515.796C483.912 507.322 498.588 498.849 513.264 490.375Z" fill="#E6E3DE"/>
<path fill-rule="evenodd" clip-rule="evenodd" d="M469.235 521.443C454.56 512.97 439.884 504.497 425.208 496.024C425.209 494.141 425.209 492.258 425.21 490.375C439.885 498.848 454.561 507.322 469.236 515.796C469.236 517.678 469.235 519.561 469.235 521.443Z" fill="#77686C"/>
<path fill-rule="evenodd" clip-rule="evenodd" d="M468.928 515.618C469.03 517.56 469.133 519.502 469.235 521.444H459.451C444.775 512.971 430.099 504.498 415.424 496.025C418.686 494.141 421.948 492.259 425.209 490.375C439.782 498.789 454.355 507.203 468.928 515.618Z" fill="#1A1A1A"/>
<path fill-rule="evenodd" clip-rule="evenodd" d="M503.48 490.375V484.726L469.236 504.499C469.236 506.381 469.235 508.264 469.235 510.146L503.48 490.375Z" fill="#90BA45"/>
<path fill-rule="evenodd" clip-rule="evenodd" d="M469.237 504.499C457.823 497.908 446.408 491.317 434.994 484.727V490.377C446.408 496.967 457.822 503.557 469.236 510.146C469.236 508.264 469.237 506.381 469.237 504.499Z" fill="#81A03F"/>
<path fill-rule="evenodd" clip-rule="evenodd" d="M503.48 484.726L469.235 464.956C457.821 471.546 446.407 478.136 434.993 484.726C446.408 491.317 457.822 497.908 469.236 504.498L503.48 484.726Z" fill="#A0D64C"/>
<path fill-rule="evenodd" clip-rule="evenodd" d="M493.697 484.762C487.241 488.489 480.786 492.216 474.33 495.942C472.633 495.047 470.936 494.152 469.238 493.257L469.163 476.309C470.795 477.258 472.426 478.206 474.058 479.155C480.604 475.375 487.15 471.595 493.696 467.816C493.696 473.464 493.697 479.113 493.697 484.762Z" fill="#90BA45"/>
<path fill-rule="evenodd" clip-rule="evenodd" d="M469.163 476.309L464.307 479.092C457.797 475.334 451.287 471.575 444.776 467.816V484.804L464.344 496.059L469.238 493.257L469.163 476.309Z" fill="#81A03F"/>
<path fill-rule="evenodd" clip-rule="evenodd" d="M493.695 462.167C487.173 458.401 480.65 454.634 474.128 450.868C472.48 451.806 470.832 452.743 469.184 453.68C467.57 452.743 465.957 451.806 464.343 450.869L444.776 462.167C446.405 463.125 448.035 464.082 449.665 465.039C448.035 465.964 446.405 466.89 444.776 467.816C451.286 471.575 457.797 475.333 464.307 479.092L469.163 476.309C470.794 477.257 472.425 478.206 474.057 479.154C480.603 475.375 487.149 471.595 493.695 467.815C492.053 466.886 490.411 465.956 488.77 465.026C490.411 464.073 492.053 463.12 493.695 462.167Z" fill="#A0D64C"/>
<path fill-rule="evenodd" clip-rule="evenodd" d="M469.163 476.309L469.238 493.257C470.868 494.207 472.498 495.157 474.128 496.107C474.104 490.456 474.081 484.806 474.058 479.155C472.426 478.206 470.794 477.258 469.163 476.309Z" fill="#81A03F"/>
<path fill-rule="evenodd" clip-rule="evenodd" d="M469.164 476.376C469.189 482.003 469.214 487.629 469.238 493.256L464.344 496.059L464.308 479.091C465.926 478.186 467.545 477.281 469.164 476.376Z" fill="#90BA45"/>
<path fill-rule="evenodd" clip-rule="evenodd" d="M493.615 462.26C493.642 464.128 493.669 465.996 493.696 467.864C492.065 466.922 490.434 465.98 488.803 465.038C490.407 464.112 492.011 463.186 493.615 462.26Z" fill="#90BA45"/>
<path fill-rule="evenodd" clip-rule="evenodd" d="M444.776 462.168C446.405 463.125 448.035 464.083 449.665 465.04C448.048 465.973 446.432 466.906 444.816 467.839C444.802 465.949 444.789 464.059 444.776 462.168Z" fill="#81A03F"/>
<path fill-rule="evenodd" clip-rule="evenodd" d="M479.022 464.992C479.022 463.109 479.021 461.227 479.021 459.344C475.76 461.227 472.499 463.111 469.238 464.993V470.64C472.5 468.758 475.761 466.875 479.022 464.992Z" fill="#C2DD22"/>
<path fill-rule="evenodd" clip-rule="evenodd" d="M469.238 470.64L459.454 464.993V459.345L469.238 464.993V470.64Z" fill="#B2C123"/>
<path fill-rule="evenodd" clip-rule="evenodd" d="M479.021 459.343C475.76 457.461 472.5 455.578 469.238 453.695C465.977 455.578 462.716 457.461 459.455 459.344L469.238 464.992C472.5 463.11 475.76 461.226 479.021 459.343Z" fill="#E1F240"/>
<path fill-rule="evenodd" clip-rule="evenodd" d="M464.344 496.059C461.177 496.101 458.01 496.144 454.842 496.187C454.748 498.016 454.655 499.845 454.561 501.674C459.452 504.498 464.344 507.322 469.235 510.146C466.058 510.195 462.882 510.243 459.705 510.292C448.206 503.653 436.708 497.014 425.21 490.375C431.732 486.609 438.254 482.844 444.776 479.079C444.727 481.117 444.679 483.155 444.63 485.194C451.201 488.816 457.773 492.437 464.344 496.059Z" fill="#1A1A1A"/>
<path fill-rule="evenodd" clip-rule="evenodd" d="M426.427 540.184C411.751 548.658 397.075 557.131 382.4 565.605L338.373 540.184C353.048 531.711 367.723 523.239 382.398 514.766L426.427 540.184Z" fill="#F8F6F6"/>
<path fill-rule="evenodd" clip-rule="evenodd" d="M426.427 540.184V545.834C411.751 554.307 397.074 562.78 382.398 571.253C382.399 569.37 382.399 567.487 382.4 565.605C397.075 557.131 411.751 548.658 426.427 540.184Z" fill="#E6E3DE"/>
<path fill-rule="evenodd" clip-rule="evenodd" d="M382.398 571.253C367.723 562.78 353.047 554.307 338.371 545.834C338.372 543.951 338.372 542.067 338.373 540.184L382.4 565.605C382.399 567.487 382.398 569.37 382.398 571.253Z" fill="#77686C"/>
<path fill-rule="evenodd" clip-rule="evenodd" d="M382.091 565.427C382.193 567.369 382.296 569.311 382.398 571.253H372.614C357.938 562.78 343.263 554.307 328.587 545.834C331.849 543.951 335.111 542.068 338.372 540.184C352.945 548.598 367.518 557.013 382.091 565.427Z" fill="#1A1A1A"/>
<path fill-rule="evenodd" clip-rule="evenodd" d="M416.643 540.184V534.536C405.228 541.126 393.814 547.717 382.4 554.308C382.399 556.19 382.398 558.073 382.398 559.955C393.813 553.365 405.228 546.774 416.643 540.184Z" fill="#90BA45"/>
<path fill-rule="evenodd" clip-rule="evenodd" d="M382.4 554.308C370.985 547.717 359.571 541.126 348.156 534.536V540.186C359.57 546.776 370.984 553.366 382.398 559.956C382.399 558.073 382.399 556.19 382.4 554.308Z" fill="#81A03F"/>
<path fill-rule="evenodd" clip-rule="evenodd" d="M416.643 534.536L382.398 514.766C370.984 521.356 359.57 527.946 348.156 534.536C359.571 541.126 370.985 547.717 382.4 554.308C393.814 547.717 405.228 541.126 416.643 534.536Z" fill="#A0D64C"/>
<path fill-rule="evenodd" clip-rule="evenodd" d="M406.86 534.571C400.404 538.298 393.949 542.025 387.493 545.751C385.796 544.856 384.099 543.961 382.402 543.067C382.376 537.417 382.351 531.768 382.326 526.118C383.958 527.067 385.589 528.015 387.221 528.964C393.767 525.184 400.313 521.404 406.859 517.625C406.859 523.274 406.86 528.922 406.86 534.571Z" fill="#90BA45"/>
<path fill-rule="evenodd" clip-rule="evenodd" d="M382.326 526.118L377.47 528.901L357.939 517.625V534.612L377.507 545.868C379.138 544.934 380.77 544 382.401 543.066C382.376 537.417 382.351 531.767 382.326 526.118Z" fill="#81A03F"/>
<path fill-rule="evenodd" clip-rule="evenodd" d="M406.858 511.976L387.291 500.678L382.347 503.489C380.733 502.552 379.12 501.615 377.506 500.678C370.984 504.444 364.462 508.211 357.939 511.977C359.568 512.934 361.198 513.891 362.828 514.848C361.198 515.773 359.569 516.699 357.939 517.625L377.47 528.901L382.326 526.118C383.957 527.066 385.589 528.015 387.22 528.963C393.766 525.184 400.312 521.404 406.858 517.624C405.216 516.695 403.575 515.765 401.933 514.835C403.575 513.882 405.216 512.929 406.858 511.976Z" fill="#A0D64C"/>
<path fill-rule="evenodd" clip-rule="evenodd" d="M382.326 526.118C382.351 531.767 382.376 537.417 382.401 543.066C384.031 544.016 385.661 544.966 387.291 545.916L387.221 528.963C385.589 528.015 383.957 527.066 382.326 526.118Z" fill="#81A03F"/>
<path fill-rule="evenodd" clip-rule="evenodd" d="M382.327 526.186L382.402 543.067C380.77 544.001 379.139 544.935 377.507 545.869C377.495 540.213 377.483 534.558 377.471 528.902C379.089 527.997 380.708 527.091 382.327 526.186Z" fill="#90BA45"/>
<path fill-rule="evenodd" clip-rule="evenodd" d="M406.778 512.068C406.805 513.936 406.832 515.804 406.859 517.672C405.228 516.73 403.597 515.788 401.966 514.846C403.57 513.92 405.174 512.994 406.778 512.068Z" fill="#90BA45"/>
<path fill-rule="evenodd" clip-rule="evenodd" d="M357.939 511.977C359.568 512.934 361.198 513.891 362.828 514.848C361.211 515.781 359.595 516.714 357.979 517.648C357.965 515.757 357.952 513.867 357.939 511.977Z" fill="#81A03F"/>
<path fill-rule="evenodd" clip-rule="evenodd" d="M392.185 514.801C392.185 512.919 392.184 511.036 392.184 509.153L382.401 514.803V520.45C385.663 518.567 388.924 516.684 392.185 514.801Z" fill="#C2DD22"/>
<path fill-rule="evenodd" clip-rule="evenodd" d="M382.402 520.449C379.141 518.567 375.879 516.684 372.618 514.802V509.153C375.879 511.036 379.141 512.919 382.402 514.802V520.449Z" fill="#B2C123"/>
<path fill-rule="evenodd" clip-rule="evenodd" d="M392.184 509.152C388.923 507.27 385.663 505.387 382.402 503.505C379.141 505.387 375.879 507.27 372.618 509.153C375.879 511.036 379.141 512.919 382.402 514.802L392.184 509.152Z" fill="#E1F240"/>
<path fill-rule="evenodd" clip-rule="evenodd" d="M377.507 545.868C374.34 545.911 371.173 545.953 368.005 545.996C367.911 547.825 367.818 549.654 367.724 551.483C372.615 554.307 377.507 557.131 382.398 559.955C379.221 560.004 376.045 560.053 372.868 560.101C361.369 553.462 349.871 546.823 338.373 540.184C344.895 536.418 351.417 532.653 357.939 528.888C357.89 530.926 357.842 532.965 357.793 535.003L377.507 545.868Z" fill="#1A1A1A"/>
<path fill-rule="evenodd" clip-rule="evenodd" d="M896.679 267.253L852.652 292.674L808.624 267.253C823.3 258.78 837.975 250.308 852.651 241.835C867.326 250.308 882.003 258.78 896.679 267.253Z" fill="#F8F6F6"/>
<path fill-rule="evenodd" clip-rule="evenodd" d="M896.678 267.253V272.903C882.002 281.376 867.325 289.849 852.65 298.322C852.65 296.439 852.651 294.557 852.651 292.674L896.678 267.253Z" fill="#E6E3DE"/>
<path fill-rule="evenodd" clip-rule="evenodd" d="M852.65 298.322C837.974 289.849 823.298 281.376 808.623 272.903C808.623 271.02 808.624 269.136 808.624 267.253L852.651 292.674C852.651 294.557 852.65 296.439 852.65 298.322Z" fill="#77686C"/>
<path fill-rule="evenodd" clip-rule="evenodd" d="M852.342 292.496C852.445 294.438 852.547 296.38 852.65 298.322H842.865C828.19 289.849 813.514 281.376 798.838 272.903L808.623 267.253C823.196 275.668 837.77 284.082 852.342 292.496Z" fill="#1A1A1A"/>
<path fill-rule="evenodd" clip-rule="evenodd" d="M886.894 267.253V261.605C875.48 268.195 864.066 274.786 852.651 281.377C852.651 283.259 852.65 285.142 852.65 287.024C864.065 280.434 875.479 273.844 886.894 267.253Z" fill="#90BA45"/>
<path fill-rule="evenodd" clip-rule="evenodd" d="M852.651 281.376C841.237 274.785 829.822 268.195 818.408 261.604V267.254L852.65 287.024C852.65 285.141 852.651 283.259 852.651 281.376Z" fill="#81A03F"/>
<path fill-rule="evenodd" clip-rule="evenodd" d="M886.894 261.605C875.479 255.015 864.065 248.425 852.65 241.835L818.408 261.605C829.822 268.196 841.237 274.786 852.651 281.377C864.066 274.786 875.48 268.196 886.894 261.605Z" fill="#A0D64C"/>
<path fill-rule="evenodd" clip-rule="evenodd" d="M877.112 261.64C870.656 265.367 864.201 269.094 857.745 272.82C856.048 271.925 854.35 271.031 852.653 270.136C852.628 264.486 852.603 258.837 852.578 253.187C854.21 254.136 855.841 255.084 857.472 256.033C864.018 252.253 870.564 248.473 877.11 244.694C877.111 250.343 877.111 255.991 877.112 261.64Z" fill="#90BA45"/>
<path fill-rule="evenodd" clip-rule="evenodd" d="M852.578 253.187C850.96 254.115 849.341 255.042 847.723 255.97C841.212 252.211 834.702 248.453 828.191 244.694V261.681C834.714 265.433 841.236 269.185 847.759 272.937C849.39 272.003 851.021 271.069 852.653 270.135C852.628 264.486 852.603 258.836 852.578 253.187Z" fill="#81A03F"/>
<path fill-rule="evenodd" clip-rule="evenodd" d="M877.11 239.045L857.543 227.747C855.894 228.684 854.247 229.621 852.598 230.558C850.985 229.621 849.372 228.684 847.758 227.748L828.191 239.046C829.821 240.003 831.45 240.96 833.08 241.917C831.45 242.843 829.821 243.768 828.191 244.694C834.702 248.453 841.212 252.212 847.722 255.97C849.34 255.043 850.96 254.115 852.578 253.187C854.21 254.135 855.84 255.084 857.472 256.032C864.018 252.253 870.564 248.473 877.11 244.693L872.185 241.904L877.11 239.045Z" fill="#A0D64C"/>
<path fill-rule="evenodd" clip-rule="evenodd" d="M852.578 253.187C852.603 258.836 852.628 264.486 852.653 270.135C854.283 271.085 855.913 272.035 857.543 272.985L857.473 256.032C855.841 255.084 854.21 254.135 852.578 253.187Z" fill="#81A03F"/>
<path fill-rule="evenodd" clip-rule="evenodd" d="M852.578 253.255C852.603 258.882 852.628 264.509 852.653 270.136C851.021 271.07 849.39 272.004 847.759 272.938C847.747 267.282 847.734 261.627 847.723 255.971C849.341 255.066 850.96 254.16 852.578 253.255Z" fill="#90BA45"/>
<path fill-rule="evenodd" clip-rule="evenodd" d="M877.029 239.138C877.056 241.006 877.084 242.874 877.11 244.742C875.479 243.8 873.849 242.858 872.218 241.915L877.029 239.138Z" fill="#90BA45"/>
<path fill-rule="evenodd" clip-rule="evenodd" d="M828.191 239.046C829.821 240.003 831.45 240.96 833.08 241.917C831.463 242.85 829.847 243.784 828.23 244.717C828.217 242.827 828.204 240.936 828.191 239.046Z" fill="#81A03F"/>
<path fill-rule="evenodd" clip-rule="evenodd" d="M862.436 241.869C862.436 239.987 862.435 238.104 862.435 236.221L852.653 241.871V247.518C855.914 245.635 859.175 243.752 862.436 241.869Z" fill="#C2DD22"/>
<path fill-rule="evenodd" clip-rule="evenodd" d="M852.653 247.518C849.391 245.636 846.131 243.753 842.869 241.871V236.222C846.131 238.105 849.391 239.988 852.653 241.871V247.518Z" fill="#B2C123"/>
<path fill-rule="evenodd" clip-rule="evenodd" d="M862.435 236.221C859.174 234.339 855.914 232.456 852.653 230.574C849.391 232.456 846.13 234.339 842.869 236.222C846.13 238.105 849.391 239.988 852.653 241.871L862.435 236.221Z" fill="#E1F240"/>
<path fill-rule="evenodd" clip-rule="evenodd" d="M847.759 272.938C844.592 272.98 841.424 273.023 838.257 273.065L837.976 278.553C842.867 281.376 847.759 284.201 852.651 287.025C849.474 287.073 846.297 287.122 843.119 287.17C831.621 280.532 820.123 273.893 808.624 267.253C815.147 263.488 821.669 259.723 828.191 255.957C828.142 257.996 828.094 260.034 828.045 262.073C834.616 265.694 841.188 269.316 847.759 272.938Z" fill="#1A1A1A"/>
<path fill-rule="evenodd" clip-rule="evenodd" d="M817.229 316.447C802.554 324.921 787.878 333.394 773.203 341.868L729.175 316.447C743.85 307.974 758.526 299.501 773.201 291.029C787.877 299.501 802.553 307.974 817.229 316.447Z" fill="#F8F6F6"/>
<path fill-rule="evenodd" clip-rule="evenodd" d="M817.229 316.447V322.097C802.553 330.57 787.877 339.043 773.201 347.515C773.202 345.633 773.202 343.75 773.203 341.868C787.878 333.394 802.554 324.921 817.229 316.447Z" fill="#E6E3DE"/>
<path fill-rule="evenodd" clip-rule="evenodd" d="M773.201 347.516C758.525 339.043 743.849 330.57 729.174 322.097C729.175 320.214 729.175 318.331 729.176 316.448L773.203 341.869C773.202 343.751 773.202 345.634 773.201 347.516Z" fill="#77686C"/>
<path fill-rule="evenodd" clip-rule="evenodd" d="M772.894 341.69C772.997 343.632 773.098 345.574 773.201 347.516H763.417C748.742 339.043 734.066 330.57 719.39 322.097C722.652 320.213 725.914 318.331 729.175 316.447C743.748 324.861 758.321 333.276 772.894 341.69Z" fill="#1A1A1A"/>
<path fill-rule="evenodd" clip-rule="evenodd" d="M807.446 316.447V310.798C796.032 317.389 784.617 323.98 773.203 330.571C773.202 332.453 773.202 334.336 773.201 336.218L807.446 316.447Z" fill="#90BA45"/>
<path fill-rule="evenodd" clip-rule="evenodd" d="M773.202 330.571C761.787 323.98 750.373 317.389 738.958 310.799V316.449L773.2 336.218C773.201 334.336 773.201 332.453 773.202 330.571Z" fill="#81A03F"/>
<path fill-rule="evenodd" clip-rule="evenodd" d="M807.446 310.799L773.201 291.029L738.959 310.799C750.374 317.39 761.788 323.981 773.203 330.571C784.617 323.981 796.032 317.39 807.446 310.799Z" fill="#A0D64C"/>
<path fill-rule="evenodd" clip-rule="evenodd" d="M797.663 310.834C791.208 314.561 784.752 318.287 778.296 322.014L773.204 319.329C773.18 313.68 773.154 308.03 773.13 302.381C774.761 303.33 776.392 304.278 778.023 305.227C784.569 301.447 791.115 297.667 797.662 293.887C797.662 299.536 797.663 305.185 797.663 310.834Z" fill="#90BA45"/>
<path fill-rule="evenodd" clip-rule="evenodd" d="M773.13 302.381C771.511 303.309 769.893 304.236 768.274 305.164C761.764 301.405 755.253 297.647 748.742 293.888V310.875C755.266 314.628 761.788 318.38 768.311 322.131C769.942 321.197 771.573 320.263 773.204 319.329C773.18 313.68 773.154 308.03 773.13 302.381Z" fill="#81A03F"/>
<path fill-rule="evenodd" clip-rule="evenodd" d="M797.662 288.239C791.139 284.472 784.616 280.706 778.094 276.94C776.446 277.877 774.798 278.815 773.15 279.752C771.537 278.815 769.924 277.878 768.31 276.941C761.788 280.707 755.266 284.473 748.742 288.239C750.372 289.197 752.002 290.154 753.632 291.111C752.002 292.036 750.372 292.962 748.742 293.888C755.253 297.646 761.764 301.405 768.273 305.164C769.892 304.236 771.511 303.308 773.13 302.381C774.761 303.329 776.392 304.278 778.023 305.226C784.569 301.447 791.115 297.667 797.662 293.887C796.019 292.957 794.378 292.028 792.736 291.098C794.378 290.145 796.019 289.192 797.662 288.239Z" fill="#A0D64C"/>
<path fill-rule="evenodd" clip-rule="evenodd" d="M773.129 302.381C773.153 308.03 773.179 313.68 773.203 319.329C774.833 320.279 776.463 321.229 778.093 322.179C778.069 316.528 778.046 310.878 778.023 305.227C776.392 304.278 774.76 303.33 773.129 302.381Z" fill="#81A03F"/>
<path fill-rule="evenodd" clip-rule="evenodd" d="M773.13 302.449C773.154 308.076 773.18 313.702 773.204 319.329C771.573 320.263 769.942 321.198 768.311 322.132C768.298 316.476 768.286 310.82 768.274 305.164C769.893 304.259 771.511 303.354 773.13 302.449Z" fill="#90BA45"/>
<path fill-rule="evenodd" clip-rule="evenodd" d="M797.581 288.332C797.607 290.2 797.635 292.068 797.662 293.936C796.031 292.994 794.4 292.052 792.769 291.11C794.373 290.184 795.977 289.258 797.581 288.332Z" fill="#90BA45"/>
<path fill-rule="evenodd" clip-rule="evenodd" d="M748.742 288.24C750.372 289.197 752.002 290.154 753.632 291.112C752.014 292.045 750.398 292.978 748.782 293.911C748.768 292.021 748.756 290.131 748.742 288.24Z" fill="#81A03F"/>
<path fill-rule="evenodd" clip-rule="evenodd" d="M782.988 291.064C782.987 289.181 782.987 287.299 782.986 285.416C779.725 287.299 776.465 289.183 773.204 291.065V296.712C776.466 294.83 779.726 292.947 782.988 291.064Z" fill="#C2DD22"/>
<path fill-rule="evenodd" clip-rule="evenodd" d="M773.204 296.712C769.943 294.83 766.682 292.947 763.421 291.065V285.417C766.682 287.299 769.943 289.182 773.204 291.065V296.712Z" fill="#B2C123"/>
<path fill-rule="evenodd" clip-rule="evenodd" d="M782.986 285.416C779.725 283.533 776.465 281.651 773.204 279.768C769.943 281.651 766.681 283.534 763.421 285.417C766.681 287.3 769.943 289.183 773.204 291.065C776.465 289.183 779.725 287.299 782.986 285.416Z" fill="#E1F240"/>
<path fill-rule="evenodd" clip-rule="evenodd" d="M768.31 322.131C765.142 322.173 761.975 322.216 758.807 322.259C758.714 324.088 758.621 325.917 758.527 327.746C763.418 330.57 768.309 333.394 773.201 336.218C770.024 336.267 766.847 336.315 763.67 336.364C752.172 329.725 740.673 323.086 729.175 316.447C735.697 312.681 742.219 308.916 748.742 305.151C748.693 307.189 748.644 309.227 748.596 311.266C755.167 314.888 761.739 318.509 768.31 322.131Z" fill="#1A1A1A"/>
<path fill-rule="evenodd" clip-rule="evenodd" d="M730.393 366.256L686.366 391.677L642.338 366.256C657.013 357.783 671.689 349.311 686.364 340.838C701.04 349.311 715.716 357.783 730.393 366.256Z" fill="#F8F6F6"/>
<path fill-rule="evenodd" clip-rule="evenodd" d="M730.393 366.257V371.907C715.716 380.38 701.04 388.853 686.364 397.326C686.365 395.443 686.365 393.56 686.366 391.678L730.393 366.257Z" fill="#E6E3DE"/>
<path fill-rule="evenodd" clip-rule="evenodd" d="M686.364 397.325L642.337 371.906C642.338 370.023 642.338 368.139 642.339 366.256L686.366 391.677C686.365 393.559 686.365 395.442 686.364 397.325Z" fill="#77686C"/>
<path fill-rule="evenodd" clip-rule="evenodd" d="M686.057 391.499C686.16 393.441 686.261 395.383 686.364 397.325H676.58L632.553 371.906C635.815 370.023 639.077 368.14 642.338 366.256C656.911 374.67 671.484 383.085 686.057 391.499Z" fill="#1A1A1A"/>
<path fill-rule="evenodd" clip-rule="evenodd" d="M720.609 366.256V360.608C709.195 367.198 697.78 373.789 686.366 380.38C686.365 382.262 686.365 384.145 686.364 386.027C697.779 379.437 709.194 372.846 720.609 366.256Z" fill="#90BA45"/>
<path fill-rule="evenodd" clip-rule="evenodd" d="M686.366 380.38C674.951 373.789 663.537 367.198 652.123 360.608V366.258C663.536 372.848 674.95 379.438 686.364 386.028C686.365 384.145 686.365 382.262 686.366 380.38Z" fill="#81A03F"/>
<path fill-rule="evenodd" clip-rule="evenodd" d="M720.609 360.608C709.194 354.018 697.779 347.428 686.364 340.838C674.95 347.428 663.536 354.018 652.123 360.608C663.537 367.198 674.951 373.789 686.366 380.38C697.78 373.789 709.195 367.198 720.609 360.608Z" fill="#A0D64C"/>
<path fill-rule="evenodd" clip-rule="evenodd" d="M710.826 360.643C704.371 364.37 697.915 368.097 691.46 371.823C689.763 370.928 688.064 370.033 686.367 369.139C686.343 363.489 686.317 357.839 686.293 352.19C687.924 353.139 689.555 354.087 691.186 355.036C697.732 351.256 704.278 347.476 710.825 343.697C710.825 349.345 710.826 354.994 710.826 360.643Z" fill="#90BA45"/>
<path fill-rule="evenodd" clip-rule="evenodd" d="M686.293 352.19C684.674 353.118 683.056 354.046 681.437 354.974C674.927 351.215 668.416 347.456 661.906 343.697C661.905 349.359 661.905 355.022 661.905 360.685C668.429 364.437 674.951 368.189 681.474 371.94C683.105 371.006 684.736 370.072 686.367 369.139C686.343 363.489 686.317 357.839 686.293 352.19Z" fill="#81A03F"/>
<path fill-rule="evenodd" clip-rule="evenodd" d="M710.825 338.049C704.303 334.283 697.779 330.517 691.257 326.75C689.609 327.688 687.961 328.625 686.313 329.562C684.7 328.625 683.087 327.688 681.473 326.751C674.951 330.517 668.429 334.283 661.905 338.05L666.795 340.921C665.165 341.847 663.535 342.772 661.906 343.698C668.416 347.457 674.927 351.216 681.436 354.974C683.055 354.046 684.674 353.119 686.293 352.191C687.924 353.139 689.555 354.088 691.186 355.036C697.732 351.257 704.278 347.477 710.825 343.697C709.182 342.768 707.541 341.838 705.899 340.908C707.541 339.955 709.182 339.002 710.825 338.049Z" fill="#A0D64C"/>
<path fill-rule="evenodd" clip-rule="evenodd" d="M686.292 352.19C686.316 357.839 686.342 363.489 686.366 369.139L691.256 371.988C691.232 366.337 691.209 360.687 691.186 355.036C689.555 354.087 687.923 353.139 686.292 352.19Z" fill="#81A03F"/>
<path fill-rule="evenodd" clip-rule="evenodd" d="M686.293 352.258C686.317 357.885 686.343 363.512 686.367 369.139C684.736 370.072 683.105 371.007 681.474 371.941C681.461 366.285 681.449 360.629 681.437 354.974C683.056 354.069 684.674 353.163 686.293 352.258Z" fill="#90BA45"/>
<path fill-rule="evenodd" clip-rule="evenodd" d="M710.744 338.141C710.771 340.009 710.798 341.877 710.825 343.745C709.194 342.803 707.563 341.861 705.932 340.919C707.537 339.993 709.14 339.067 710.744 338.141Z" fill="#90BA45"/>
<path fill-rule="evenodd" clip-rule="evenodd" d="M661.905 338.05L666.795 340.921C665.178 341.854 663.561 342.787 661.945 343.721C661.932 341.83 661.919 339.94 661.905 338.05Z" fill="#81A03F"/>
<path fill-rule="evenodd" clip-rule="evenodd" d="M696.151 340.873C696.15 338.99 696.15 337.108 696.149 335.225L686.367 340.875V346.522C689.629 344.639 692.889 342.756 696.151 340.873Z" fill="#C2DD22"/>
<path fill-rule="evenodd" clip-rule="evenodd" d="M686.367 346.522C683.106 344.64 679.845 342.757 676.584 340.875V335.226C679.845 337.109 683.106 338.992 686.367 340.875V346.522Z" fill="#B2C123"/>
<path fill-rule="evenodd" clip-rule="evenodd" d="M696.149 335.225C692.888 333.343 689.628 331.46 686.367 329.577C683.106 331.46 679.844 333.343 676.584 335.226C679.844 337.109 683.106 338.992 686.367 340.875L696.149 335.225Z" fill="#E1F240"/>
<path fill-rule="evenodd" clip-rule="evenodd" d="M681.473 371.941C678.305 371.984 675.138 372.026 671.97 372.069C671.877 373.898 671.784 375.727 671.69 377.556C676.581 380.38 681.472 383.204 686.364 386.028C683.187 386.077 680.01 386.126 676.833 386.174C665.335 379.535 653.836 372.896 642.338 366.257C648.86 362.491 655.382 358.726 661.905 354.961C661.856 356.999 661.807 359.038 661.759 361.076C668.33 364.698 674.902 368.319 681.473 371.941Z" fill="#1A1A1A"/>
<path fill-rule="evenodd" clip-rule="evenodd" d="M1167.72 106.807C1153.04 115.28 1138.37 123.754 1123.69 132.227C1109.02 123.754 1094.34 115.28 1079.66 106.807C1094.34 98.3339 1109.01 89.8609 1123.69 81.3889C1138.37 89.8609 1153.04 98.3339 1167.72 106.807Z" fill="#F8F6F6"/>
<path fill-rule="evenodd" clip-rule="evenodd" d="M1167.72 106.807V112.457C1153.04 120.93 1138.37 129.403 1123.69 137.875C1123.69 135.993 1123.69 134.11 1123.69 132.227C1138.37 123.754 1153.04 115.28 1167.72 106.807Z" fill="#E6E3DE"/>
<path fill-rule="evenodd" clip-rule="evenodd" d="M1123.69 137.875C1109.01 129.402 1094.34 120.929 1079.66 112.456C1079.66 110.573 1079.66 108.689 1079.66 106.807C1094.34 115.28 1109.02 123.753 1123.69 132.227C1123.69 134.11 1123.69 135.993 1123.69 137.875Z" fill="#77686C"/>
<path fill-rule="evenodd" clip-rule="evenodd" d="M1123.38 132.049L1123.69 137.875H1113.91C1099.23 129.402 1084.55 120.929 1069.88 112.456C1073.14 110.572 1076.4 108.689 1079.66 106.806C1094.24 115.22 1108.81 123.634 1123.38 132.049Z" fill="#1A1A1A"/>
<path fill-rule="evenodd" clip-rule="evenodd" d="M1157.93 106.807V101.158C1146.52 107.749 1135.11 114.34 1123.69 120.93C1123.69 122.813 1123.69 124.696 1123.69 126.578C1135.1 119.988 1146.52 113.397 1157.93 106.807Z" fill="#90BA45"/>
<path fill-rule="evenodd" clip-rule="evenodd" d="M1123.69 120.93C1112.28 114.34 1100.86 107.749 1089.45 101.158V106.808L1123.69 126.578C1123.69 124.696 1123.69 122.813 1123.69 120.93Z" fill="#81A03F"/>
<path fill-rule="evenodd" clip-rule="evenodd" d="M1157.93 101.158C1146.52 94.5679 1135.11 87.9779 1123.69 81.3879L1089.45 101.158C1100.86 107.749 1112.28 114.34 1123.69 120.93C1135.11 114.34 1146.52 107.749 1157.93 101.158Z" fill="#A0D64C"/>
<path fill-rule="evenodd" clip-rule="evenodd" d="M1148.15 101.193C1141.7 104.92 1135.24 108.647 1128.79 112.374L1123.69 109.689C1123.67 104.039 1123.64 98.3901 1123.62 92.7401C1125.25 93.6891 1126.88 94.6371 1128.51 95.5861L1148.15 84.2471C1148.15 89.8961 1148.15 95.5451 1148.15 101.193Z" fill="#90BA45"/>
<path fill-rule="evenodd" clip-rule="evenodd" d="M1123.62 92.7403C1122 93.6683 1120.38 94.5953 1118.76 95.5233C1112.25 91.7643 1105.74 88.0063 1099.23 84.2473V101.234C1105.75 104.986 1112.28 108.739 1118.8 112.49C1120.43 111.556 1122.06 110.622 1123.69 109.688C1123.67 104.039 1123.64 98.3893 1123.62 92.7403Z" fill="#81A03F"/>
<path fill-rule="evenodd" clip-rule="evenodd" d="M1148.15 78.5983L1128.58 67.3003C1126.93 68.2373 1125.29 69.1743 1123.64 70.1113C1122.02 69.1743 1120.41 68.2373 1118.8 67.3013L1099.23 78.5993C1100.86 79.5563 1102.49 80.5133 1104.12 81.4703C1102.49 82.3963 1100.86 83.3223 1099.23 84.2473C1105.74 88.0063 1112.25 91.7653 1118.76 95.5233C1120.38 94.5963 1122 93.6683 1123.62 92.7403C1125.25 93.6893 1126.88 94.6373 1128.51 95.5863L1148.15 84.2463L1143.22 81.4573L1148.15 78.5983Z" fill="#A0D64C"/>
<path fill-rule="evenodd" clip-rule="evenodd" d="M1123.62 92.7405C1123.64 98.3895 1123.67 104.039 1123.69 109.688C1125.32 110.638 1126.95 111.588 1128.58 112.538C1128.56 106.887 1128.54 101.236 1128.51 95.5865C1126.88 94.6375 1125.25 93.6895 1123.62 92.7405Z" fill="#81A03F"/>
<path fill-rule="evenodd" clip-rule="evenodd" d="M1123.62 92.8079C1123.64 98.4349 1123.67 104.062 1123.69 109.689C1122.06 110.623 1120.43 111.557 1118.8 112.491C1118.79 106.835 1118.77 101.18 1118.76 95.5239C1120.38 94.6189 1122 93.7129 1123.62 92.8079Z" fill="#90BA45"/>
<path fill-rule="evenodd" clip-rule="evenodd" d="M1099.23 78.5994C1100.86 79.5564 1102.49 80.5134 1104.12 81.4704C1102.5 82.4044 1100.89 83.3374 1099.27 84.2704C1099.26 82.3804 1099.24 80.4894 1099.23 78.5994Z" fill="#81A03F"/>
<path fill-rule="evenodd" clip-rule="evenodd" d="M1133.48 81.4229C1133.48 79.5399 1133.48 77.6569 1133.48 75.7749C1130.21 77.6579 1126.95 79.5409 1123.69 81.4239V87.0709C1126.95 85.1889 1130.22 83.3059 1133.48 81.4229Z" fill="#C2DD22"/>
<path fill-rule="evenodd" clip-rule="evenodd" d="M1123.69 87.0714C1120.43 85.1894 1117.17 83.3064 1113.91 81.4244V75.7754C1117.17 77.6584 1120.43 79.5414 1123.69 81.4244V87.0714Z" fill="#B2C123"/>
<path fill-rule="evenodd" clip-rule="evenodd" d="M1133.48 75.7752C1130.21 73.8922 1126.95 72.0102 1123.69 70.1272C1120.43 72.0102 1117.17 73.8932 1113.91 75.7752C1117.17 77.6592 1120.43 79.5422 1123.69 81.4242C1126.95 79.5412 1130.21 77.6582 1133.48 75.7752Z" fill="#E1F240"/>
<path fill-rule="evenodd" clip-rule="evenodd" d="M1118.8 112.491C1115.63 112.533 1112.46 112.576 1109.3 112.618L1109.02 118.106C1113.91 120.93 1118.8 123.754 1123.69 126.578C1120.51 126.627 1117.34 126.675 1114.16 126.724C1102.66 120.085 1091.16 113.446 1079.66 106.807C1086.19 103.041 1092.71 99.276 1099.23 95.51C1099.18 97.549 1099.13 99.587 1099.08 101.626C1105.66 105.247 1112.23 108.869 1118.8 112.491Z" fill="#1A1A1A"/>
<path fill-rule="evenodd" clip-rule="evenodd" d="M1088.27 156.001L1044.24 181.422C1029.57 172.948 1014.89 164.475 1000.22 156.001C1014.89 147.528 1029.57 139.056 1044.24 130.583C1058.92 139.056 1073.59 147.528 1088.27 156.001Z" fill="#F8F6F6"/>
<path fill-rule="evenodd" clip-rule="evenodd" d="M1088.27 156.001V161.651C1073.59 170.124 1058.92 178.597 1044.24 187.07C1044.24 185.187 1044.24 183.304 1044.24 181.422L1088.27 156.001Z" fill="#E6E3DE"/>
<path fill-rule="evenodd" clip-rule="evenodd" d="M1044.24 187.069C1029.56 178.596 1014.89 170.123 1000.21 161.65C1000.21 159.767 1000.21 157.883 1000.22 156C1014.89 164.474 1029.57 172.947 1044.24 181.421C1044.24 183.303 1044.24 185.186 1044.24 187.069Z" fill="#77686C"/>
<path fill-rule="evenodd" clip-rule="evenodd" d="M1043.93 181.243C1044.04 183.185 1044.14 185.127 1044.24 187.069H1034.46C1019.78 178.596 1005.11 170.123 990.43 161.65C993.692 159.767 996.954 157.884 1000.22 156C1014.79 164.414 1029.36 172.829 1043.93 181.243Z" fill="#1A1A1A"/>
<path fill-rule="evenodd" clip-rule="evenodd" d="M1078.49 156.001V150.353C1067.07 156.943 1055.66 163.534 1044.24 170.125C1044.24 172.007 1044.24 173.89 1044.24 175.772C1055.66 169.182 1067.07 162.591 1078.49 156.001Z" fill="#90BA45"/>
<path fill-rule="evenodd" clip-rule="evenodd" d="M1044.24 170.124C1032.83 163.533 1021.41 156.942 1010 150.352V156.002C1021.41 162.592 1032.83 169.182 1044.24 175.772C1044.24 173.889 1044.24 172.006 1044.24 170.124Z" fill="#81A03F"/>
<path fill-rule="evenodd" clip-rule="evenodd" d="M1078.49 150.352L1044.24 130.582C1032.83 137.172 1021.41 143.762 1010 150.352C1021.41 156.942 1032.83 163.533 1044.24 170.124C1055.66 163.533 1067.07 156.942 1078.49 150.352Z" fill="#A0D64C"/>
<path fill-rule="evenodd" clip-rule="evenodd" d="M1068.7 150.387C1062.25 154.114 1055.79 157.841 1049.34 161.567C1047.64 160.672 1045.94 159.777 1044.24 158.883C1044.22 153.233 1044.19 147.584 1044.17 141.934C1045.8 142.883 1047.43 143.831 1049.06 144.78C1055.61 141 1062.15 137.22 1068.7 133.441C1068.7 139.089 1068.7 144.738 1068.7 150.387Z" fill="#90BA45"/>
<path fill-rule="evenodd" clip-rule="evenodd" d="M1044.17 141.935C1042.55 142.863 1040.93 143.79 1039.31 144.718C1032.8 140.959 1026.29 137.201 1019.78 133.442C1019.78 139.104 1019.78 144.767 1019.78 150.429C1026.31 154.181 1032.83 157.933 1039.35 161.685C1040.98 160.751 1042.61 159.817 1044.24 158.883C1044.22 153.234 1044.19 147.584 1044.17 141.935Z" fill="#81A03F"/>
<path fill-rule="evenodd" clip-rule="evenodd" d="M1068.7 127.793C1062.18 124.027 1055.66 120.261 1049.13 116.494C1047.49 117.432 1045.84 118.369 1044.19 119.306C1042.58 118.369 1040.96 117.432 1039.35 116.495C1032.83 120.261 1026.31 124.027 1019.78 127.794C1021.41 128.751 1023.04 129.708 1024.67 130.665C1023.04 131.591 1021.41 132.516 1019.78 133.442C1026.29 137.201 1032.8 140.96 1039.31 144.718C1040.93 143.791 1042.55 142.863 1044.17 141.935C1045.8 142.883 1047.43 143.832 1049.06 144.78C1055.61 141.001 1062.15 137.221 1068.7 133.441C1067.06 132.512 1065.42 131.582 1063.78 130.652C1065.42 129.699 1067.06 128.746 1068.7 127.793Z" fill="#A0D64C"/>
<path fill-rule="evenodd" clip-rule="evenodd" d="M1044.17 141.935C1044.19 147.584 1044.22 153.234 1044.24 158.883L1049.13 161.732C1049.11 156.082 1049.09 150.431 1049.06 144.78C1047.43 143.832 1045.8 142.883 1044.17 141.935Z" fill="#81A03F"/>
<path fill-rule="evenodd" clip-rule="evenodd" d="M1044.17 142.002C1044.19 147.629 1044.22 153.256 1044.24 158.883C1042.61 159.816 1040.98 160.751 1039.35 161.685C1039.34 156.029 1039.33 150.373 1039.31 144.718C1040.93 143.813 1042.55 142.907 1044.17 142.002Z" fill="#90BA45"/>
<path fill-rule="evenodd" clip-rule="evenodd" d="M1068.62 127.885C1068.65 129.753 1068.67 131.621 1068.7 133.489C1067.07 132.547 1065.44 131.605 1063.81 130.663C1065.41 129.737 1067.02 128.811 1068.62 127.885Z" fill="#90BA45"/>
<path fill-rule="evenodd" clip-rule="evenodd" d="M1019.78 127.794C1021.41 128.751 1023.04 129.708 1024.67 130.665C1023.05 131.598 1021.44 132.531 1019.82 133.465C1019.81 131.574 1019.8 129.684 1019.78 127.794Z" fill="#81A03F"/>
<path fill-rule="evenodd" clip-rule="evenodd" d="M1054.03 130.617C1054.03 128.735 1054.03 126.852 1054.03 124.969L1044.24 130.619V136.266C1047.51 134.383 1050.77 132.5 1054.03 130.617Z" fill="#C2DD22"/>
<path fill-rule="evenodd" clip-rule="evenodd" d="M1044.24 136.266C1040.98 134.384 1037.72 132.501 1034.46 130.619V124.97C1037.72 126.853 1040.98 128.736 1044.24 130.619V136.266Z" fill="#B2C123"/>
<path fill-rule="evenodd" clip-rule="evenodd" d="M1054.03 124.969C1050.76 123.087 1047.5 121.204 1044.24 119.321C1040.98 121.204 1037.72 123.087 1034.46 124.97C1037.72 126.853 1040.98 128.736 1044.24 130.619L1054.03 124.969Z" fill="#E1F240"/>
<path fill-rule="evenodd" clip-rule="evenodd" d="M1039.35 161.685C1036.18 161.728 1033.02 161.77 1029.85 161.813L1029.57 167.3C1034.46 170.124 1039.35 172.948 1044.24 175.772C1041.06 175.821 1037.89 175.87 1034.71 175.918C1023.21 169.279 1011.71 162.64 1000.22 156.001C1006.74 152.235 1013.26 148.47 1019.78 144.705C1019.73 146.743 1019.68 148.782 1019.64 150.82C1026.21 154.442 1032.78 158.063 1039.35 161.685Z" fill="#1A1A1A"/>
<path fill-rule="evenodd" clip-rule="evenodd" d="M1001.43 205.81L957.406 231.231L913.378 205.81C928.053 197.337 942.729 188.865 957.404 180.392C972.08 188.865 986.756 197.337 1001.43 205.81Z" fill="#F8F6F6"/>
<path fill-rule="evenodd" clip-rule="evenodd" d="M1001.43 205.81V211.46C986.756 219.934 972.08 228.406 957.404 236.879C957.405 234.996 957.405 233.114 957.406 231.231L1001.43 205.81Z" fill="#E6E3DE"/>
<path fill-rule="evenodd" clip-rule="evenodd" d="M957.404 236.879C942.728 228.406 928.052 219.933 913.377 211.46C913.378 209.577 913.378 207.693 913.379 205.81L957.406 231.231C957.405 233.114 957.405 234.996 957.404 236.879Z" fill="#77686C"/>
<path fill-rule="evenodd" clip-rule="evenodd" d="M957.097 231.052C957.2 232.994 957.301 234.936 957.404 236.878H947.62C932.945 228.405 918.269 219.932 903.593 211.459L913.378 205.809C927.951 214.224 942.524 222.638 957.097 231.052Z" fill="#1A1A1A"/>
<path fill-rule="evenodd" clip-rule="evenodd" d="M991.649 205.81V200.162C980.235 206.752 968.82 213.343 957.406 219.934C957.405 221.816 957.405 223.699 957.404 225.581C968.819 218.991 980.234 212.401 991.649 205.81Z" fill="#90BA45"/>
<path fill-rule="evenodd" clip-rule="evenodd" d="M957.406 219.933C945.991 213.342 934.577 206.752 923.163 200.161V205.811C934.576 212.401 945.99 218.991 957.404 225.581C957.405 223.698 957.405 221.816 957.406 219.933Z" fill="#81A03F"/>
<path fill-rule="evenodd" clip-rule="evenodd" d="M991.649 200.161L957.404 180.391C945.99 186.981 934.576 193.571 923.163 200.161C934.577 206.752 945.991 213.342 957.406 219.933C968.82 213.342 980.235 206.752 991.649 200.161Z" fill="#A0D64C"/>
<path fill-rule="evenodd" clip-rule="evenodd" d="M981.866 200.196C975.411 203.923 968.955 207.65 962.5 211.376C960.803 210.481 959.104 209.587 957.407 208.692C957.383 203.042 957.357 197.393 957.333 191.743C958.964 192.692 960.595 193.64 962.226 194.589C968.772 190.809 975.318 187.029 981.865 183.25C981.865 188.899 981.866 194.547 981.866 200.196Z" fill="#90BA45"/>
<path fill-rule="evenodd" clip-rule="evenodd" d="M957.333 191.744C955.714 192.672 954.096 193.599 952.477 194.527C945.967 190.768 939.456 187.01 932.946 183.251C932.946 188.913 932.946 194.576 932.945 200.238C939.469 203.99 945.991 207.742 952.514 211.494C954.145 210.56 955.776 209.626 957.407 208.692C957.383 203.043 957.357 197.393 957.333 191.744Z" fill="#81A03F"/>
<path fill-rule="evenodd" clip-rule="evenodd" d="M981.865 177.602C975.343 173.836 968.819 170.07 962.297 166.304C960.649 167.241 959.001 168.178 957.353 169.115C955.74 168.178 954.127 167.241 952.513 166.304C945.991 170.071 939.469 173.837 932.946 177.603C934.575 178.56 936.205 179.517 937.835 180.474C936.205 181.4 934.575 182.326 932.946 183.251C939.456 187.01 945.967 190.769 952.476 194.527C954.095 193.6 955.714 192.672 957.333 191.744C958.964 192.692 960.595 193.641 962.226 194.589C968.772 190.81 975.318 187.03 981.865 183.25C980.222 182.321 978.581 181.391 976.939 180.461C978.581 179.508 980.222 178.555 981.865 177.602Z" fill="#A0D64C"/>
<path fill-rule="evenodd" clip-rule="evenodd" d="M957.333 191.744C957.357 197.393 957.383 203.043 957.407 208.692C959.037 209.642 960.667 210.592 962.297 211.542L962.227 194.589C960.596 193.641 958.964 192.692 957.333 191.744Z" fill="#81A03F"/>
<path fill-rule="evenodd" clip-rule="evenodd" d="M957.333 191.811C957.357 197.438 957.383 203.065 957.407 208.692C955.776 209.626 954.145 210.56 952.514 211.494C952.501 205.838 952.489 200.183 952.477 194.527C954.096 193.622 955.714 192.716 957.333 191.811Z" fill="#90BA45"/>
<path fill-rule="evenodd" clip-rule="evenodd" d="M981.784 177.695C981.811 179.563 981.838 181.431 981.865 183.299L976.972 180.473C978.577 179.547 980.18 178.621 981.784 177.695Z" fill="#90BA45"/>
<path fill-rule="evenodd" clip-rule="evenodd" d="M932.946 177.603C934.575 178.56 936.205 179.517 937.835 180.474C936.218 181.407 934.601 182.341 932.985 183.274C932.972 181.384 932.959 179.493 932.946 177.603Z" fill="#81A03F"/>
<path fill-rule="evenodd" clip-rule="evenodd" d="M967.191 180.426C967.19 178.544 967.19 176.661 967.19 174.779C963.928 176.661 960.668 178.545 957.407 180.428V186.075C960.669 184.192 963.929 182.309 967.191 180.426Z" fill="#C2DD22"/>
<path fill-rule="evenodd" clip-rule="evenodd" d="M957.407 186.075C954.146 184.193 950.885 182.31 947.624 180.428V174.779C950.885 176.662 954.146 178.545 957.407 180.428V186.075Z" fill="#B2C123"/>
<path fill-rule="evenodd" clip-rule="evenodd" d="M967.19 174.778C963.928 172.895 960.668 171.012 957.407 169.13C954.146 171.013 950.884 172.896 947.624 174.778C950.884 176.661 954.146 178.545 957.407 180.427C960.668 178.544 963.928 176.661 967.19 174.778Z" fill="#E1F240"/>
<path fill-rule="evenodd" clip-rule="evenodd" d="M952.513 211.494C949.345 211.536 946.178 211.579 943.011 211.621L942.73 217.109C947.621 219.933 952.512 222.757 957.404 225.581C954.227 225.629 951.05 225.678 947.873 225.727C936.375 219.088 924.876 212.449 913.378 205.809C919.901 202.044 926.422 198.279 932.945 194.513C932.896 196.552 932.847 198.59 932.799 200.629C939.37 204.25 945.942 207.872 952.513 211.494Z" fill="#1A1A1A"/>
</svg>
