<svg width="269" height="215" viewBox="0 0 269 215" fill="none" xmlns="http://www.w3.org/2000/svg">
<path fill-rule="evenodd" clip-rule="evenodd" d="M8.51134 78.0117L171.346 172.222L164.543 174.231L4.57764e-05 79.3732V79.3728L8.50098 74.4231L8.51134 78.0117Z" fill="#36475B"/>
<path fill-rule="evenodd" clip-rule="evenodd" d="M8.65388 74.4231L8.6638 78.0007L171.346 171.923L171.336 168.345L8.65388 74.4231Z" fill="#E8E8E8"/>
<path fill-rule="evenodd" clip-rule="evenodd" d="M300 97.6275L171.356 171.923L171.346 168.334L299.99 94.0385L300 97.6275Z" fill="#DEDEDE"/>
<path fill-rule="evenodd" clip-rule="evenodd" d="M137.572 0L300 94.5134L171.083 169.038L8.65384 74.5251L137.571 0H137.572Z" fill="#FEFEFE"/>
<path fill-rule="evenodd" clip-rule="evenodd" d="M77.3075 65.2798L79.1246 66.3461L125.769 39.1433L123.952 38.0769L77.3075 65.2798Z" fill="#E5E5E5"/>
<path fill-rule="evenodd" clip-rule="evenodd" d="M68.6536 84.122L70.8457 85.3846L164.423 31.8395L162.231 30.5769L68.6536 84.122Z" fill="#E5E5E5"/>
<path fill-rule="evenodd" clip-rule="evenodd" d="M75.5767 87.5932L77.7389 88.8461L170.769 35.2914L168.606 34.0385L75.5767 87.5932Z" fill="#E5E5E5"/>
<path fill-rule="evenodd" clip-rule="evenodd" d="M81.9229 91.6316L84.0851 92.8846L177.115 39.3299L174.953 38.0769L81.9229 91.6316Z" fill="#E5E5E5"/>
<path fill-rule="evenodd" clip-rule="evenodd" d="M88.2691 95.0932L90.4313 96.3461L183.461 42.7914L181.299 41.5385L88.2691 95.0932Z" fill="#E5E5E5"/>
<path fill-rule="evenodd" clip-rule="evenodd" d="M112.5 96.2394L114.662 97.5L196.154 50.2986L193.992 49.0385L112.5 96.2394Z" fill="#E5E5E5"/>
<path fill-rule="evenodd" clip-rule="evenodd" d="M204.513 55.6167C204.028 55.8974 204.023 56.3526 204.504 56.6332C204.985 56.9139 205.771 56.9139 206.256 56.6332C206.74 56.3526 206.74 55.8974 206.258 55.6167C205.777 55.3361 204.997 55.3361 204.513 55.6167Z" fill="#E5E5E5"/>
<path fill-rule="evenodd" clip-rule="evenodd" d="M158.395 82.0908L160.56 83.3536L203.9 58.2421L201.735 56.9792L158.395 82.0908Z" fill="#E5E5E5"/>
<path fill-rule="evenodd" clip-rule="evenodd" d="M223.483 66.6806C222.999 66.9613 222.996 67.4179 223.477 67.6985C223.959 67.9791 224.745 67.9791 225.229 67.6985C225.713 67.4179 225.713 66.9626 225.232 66.682C224.75 66.4013 223.968 66.4 223.483 66.6806Z" fill="#E5E5E5"/>
<path fill-rule="evenodd" clip-rule="evenodd" d="M156.283 90.7496L158.449 92.0124L210.295 61.9717L208.13 60.7089L156.283 90.7496Z" fill="#E5E5E5"/>
<path fill-rule="evenodd" clip-rule="evenodd" d="M176.449 86.5011L178.614 87.7639L216.691 65.7015L214.525 64.4391L176.449 86.5011Z" fill="#E5E5E5"/>
<path fill-rule="evenodd" clip-rule="evenodd" d="M177.368 93.1562L179.534 94.4191L222.874 69.3075L220.708 68.0447L177.368 93.1562Z" fill="#E5E5E5"/>
<path fill-rule="evenodd" clip-rule="evenodd" d="M141.41 126.341L143.575 127.604L236.734 73.6266L234.569 72.3633L141.41 126.341Z" fill="#E5E5E5"/>
<path fill-rule="evenodd" clip-rule="evenodd" d="M147.805 130.071L149.97 131.334L243.129 77.3564L240.964 76.0935L147.805 130.071Z" fill="#E5E5E5"/>
<path fill-rule="evenodd" clip-rule="evenodd" d="M94.5551 99.0147L96.7203 100.278L189.879 46.3002L187.714 45.0374L94.5551 99.0147Z" fill="#E5E5E5"/>
<path fill-rule="evenodd" clip-rule="evenodd" d="M35.3017 77.9785L37.1203 79.0392L64.6826 63.0692L62.8641 62.0084L35.3017 77.9785Z" fill="#E5E5E5"/>
<path fill-rule="evenodd" clip-rule="evenodd" d="M36.722 72.9238L38.5405 73.9845L55.9824 63.8785L54.1639 62.8177L36.722 72.9238Z" fill="#E5E5E5"/>
<path fill-rule="evenodd" clip-rule="evenodd" d="M242.624 107.013L243.359 107.442L269.325 92.3977L268.589 91.9686L242.624 107.013Z" fill="#E5E5E5"/>
<path fill-rule="evenodd" clip-rule="evenodd" d="M210.905 59.3449C210.42 59.6256 210.418 60.0822 210.899 60.3628C211.381 60.6434 212.167 60.6434 212.651 60.3628C213.135 60.0822 213.135 59.6269 212.654 59.3463C212.172 59.0657 211.389 59.0643 210.905 59.3449Z" fill="#E5E5E5"/>
<path fill-rule="evenodd" clip-rule="evenodd" d="M217.301 63.0747C216.816 63.3553 216.814 63.8124 217.295 64.093C217.776 64.3732 218.559 64.3718 219.043 64.0912C219.528 63.8106 219.53 63.3571 219.049 63.0765C218.568 62.7959 217.785 62.7941 217.301 63.0747Z" fill="#E5E5E5"/>
<path fill-rule="evenodd" clip-rule="evenodd" d="M169.027 150.085L169.763 150.515L195.731 135.468L194.996 135.039L169.027 150.085Z" fill="#E5E5E5"/>
<mask id="mask0" mask-type="alpha" maskUnits="userSpaceOnUse" x="130" y="126" width="35" height="40">
<path fill-rule="evenodd" clip-rule="evenodd" d="M130.988 126.347H164.82V165.99H130.988V126.347Z" fill="white"/>
</mask>
<g mask="url(#mask0)">
<path fill-rule="evenodd" clip-rule="evenodd" d="M130.993 137.261C130.99 134.614 132.965 131.822 136.831 129.642C143.894 125.659 154.578 125.227 160.695 128.676C163.436 130.222 164.79 132.285 164.819 134.45H164.82V137.736V137.882V141.168L164.816 141.168C164.817 141.19 164.815 141.212 164.815 141.234L164.82 141.233V144.413V144.665V147.845L164.816 147.846C164.817 147.868 164.815 147.89 164.815 147.912L164.82 147.911V151.343L164.816 151.344C164.818 151.396 164.813 151.449 164.813 151.502L164.82 151.501V154.933L164.816 154.933C164.893 157.622 162.918 160.476 158.982 162.695C151.919 166.678 141.235 167.11 135.118 163.661C132.282 162.062 130.944 159.907 131.01 157.66L131.012 154.31C131.011 154.23 131.008 154.15 131.01 154.07L131.011 150.72C131.011 150.671 131.008 150.622 131.01 150.573L131.009 147.223L131.011 144.042C131.011 143.993 131.008 143.944 131.01 143.894L130.989 140.611H130.988V137.261L130.993 137.261Z" fill="#DCA700"/>
</g>
<path fill-rule="evenodd" clip-rule="evenodd" d="M135.099 150.776C141.257 154.347 152.012 153.899 159.122 149.776C163.052 147.497 165.037 144.572 164.994 141.808L165 141.808V145.361L164.996 145.361C165.072 148.145 163.084 151.099 159.122 153.397C152.012 157.52 141.257 157.968 135.099 154.397C132.244 152.741 130.898 150.51 130.964 148.184L130.965 144.716C130.962 146.987 132.307 149.156 135.099 150.776Z" fill="#CC8200"/>
<path fill-rule="evenodd" clip-rule="evenodd" d="M135.099 157.122C141.257 160.693 152.012 160.245 159.122 156.121C163.052 153.842 165.037 150.918 164.994 148.154L165 148.154V151.707L164.996 151.707C165.072 154.491 163.084 157.445 159.122 159.743C152.012 163.866 141.257 164.314 135.099 160.743C132.244 159.087 130.898 156.856 130.964 154.531L130.965 151.063C130.962 153.333 132.307 155.502 135.099 157.122Z" fill="#CC8200"/>
<mask id="mask1" mask-type="alpha" maskUnits="userSpaceOnUse" x="130" y="126" width="35" height="20">
<path fill-rule="evenodd" clip-rule="evenodd" d="M130.988 126.346H164.824V145.219H130.988V126.346Z" fill="white"/>
</mask>
<g mask="url(#mask1)">
<path fill-rule="evenodd" clip-rule="evenodd" d="M136.831 129.605C129.768 133.544 129.001 139.504 135.118 142.916C141.234 146.327 151.919 145.899 158.981 141.96C166.044 138.021 166.811 132.061 160.695 128.649C154.578 125.238 143.894 125.666 136.831 129.605Z" fill="#DCA700"/>
</g>
<path fill-rule="evenodd" clip-rule="evenodd" d="M164.999 134.885C165.035 137.639 163.047 140.553 159.125 142.825C152.019 146.941 141.27 147.388 135.116 143.823C132.331 142.21 130.969 140.051 130.966 137.789L130.961 137.79V141.252C130.961 141.252 131.067 145.051 135.116 147.452C141.233 151.08 152.019 150.57 159.125 146.454C163.085 144.16 165.072 141.21 164.995 138.432L165 138.431V134.885H164.999Z" fill="#CC8200"/>
<path fill-rule="evenodd" clip-rule="evenodd" d="M139.205 130.651C133.425 133.903 132.797 138.821 137.803 141.637C142.809 144.453 151.553 144.1 157.334 140.849C163.114 137.597 163.742 132.679 158.736 129.862C153.73 127.047 144.986 127.4 139.205 130.651Z" fill="#FFD800"/>
<path fill-rule="evenodd" clip-rule="evenodd" d="M143.642 134.516L149.6 137.799C148.267 138.019 142.719 136.523 143.642 134.516ZM140.092 134.337C139.216 136.743 143.27 138.604 145.046 139.226C147.352 140.034 149.9 140.218 152.186 139.224L153.733 140.077L155.192 139.273L153.64 138.418C154.241 137.998 154.684 137.55 154.964 137.074L152.472 135.701C152.154 136.244 151.743 136.708 151.239 137.095L144.956 133.633C145.627 133.385 146.371 133.248 147.076 133.133L145.537 131.423C144.395 131.606 143.387 131.894 142.51 132.284L141.074 131.493L139.615 132.297L141.083 133.105C140.585 133.488 140.252 133.898 140.092 134.337C140.252 133.898 139.861 134.972 140.092 134.337Z" fill="#DCA700"/>
<mask id="mask2" mask-type="alpha" maskUnits="userSpaceOnUse" x="110" y="134" width="114" height="81">
<path fill-rule="evenodd" clip-rule="evenodd" d="M110.192 134.49H223.846V214.398H110.192V134.49Z" fill="white"/>
</mask>
<g mask="url(#mask2)">
<path fill-rule="evenodd" clip-rule="evenodd" d="M223.846 156.29V170.899L148.077 214.398L110.192 192.624V178.091L185.962 134.49L223.846 156.29Z" fill="#007A6E"/>
</g>
<mask id="mask3" mask-type="alpha" maskUnits="userSpaceOnUse" x="148" y="155" width="77" height="59">
<path fill-rule="evenodd" clip-rule="evenodd" d="M148.419 155.734H225V213.923H148.419V155.734Z" fill="white"/>
</mask>
<g mask="url(#mask3)">
<path fill-rule="evenodd" clip-rule="evenodd" d="M225 155.734V170.363L148.419 213.923V199.421L225 155.734Z" fill="#009F5E"/>
</g>
<mask id="mask4" mask-type="alpha" maskUnits="userSpaceOnUse" x="110" y="159" width="115" height="48">
<path fill-rule="evenodd" clip-rule="evenodd" d="M110.246 159.231H224.567V206.397H110.246V159.231Z" fill="white"/>
</mask>
<g mask="url(#mask4)">
<path fill-rule="evenodd" clip-rule="evenodd" d="M148.316 203.432L224.567 159.231V162.182L148.316 206.397L110.246 184.336V181.386L148.316 203.432Z" fill="#00917F"/>
</g>
<mask id="mask5" mask-type="alpha" maskUnits="userSpaceOnUse" x="110" y="164" width="114" height="48">
<path fill-rule="evenodd" clip-rule="evenodd" d="M110.192 164.494H223.846V211.412H110.192V164.494Z" fill="white"/>
</mask>
<g mask="url(#mask5)">
<path fill-rule="evenodd" clip-rule="evenodd" d="M148.09 208.462L223.846 164.494V167.43L148.09 211.412L110.192 189.446V186.513L148.09 208.462Z" fill="#00917F"/>
</g>
<path fill-rule="evenodd" clip-rule="evenodd" d="M225 159.115V162.002L148.27 205.269V202.369L225 159.115Z" fill="#00AC65"/>
<path fill-rule="evenodd" clip-rule="evenodd" d="M225 165.461V168.35L148.27 211.615V208.714L225 165.461Z" fill="#00AC65"/>
<mask id="mask6" mask-type="alpha" maskUnits="userSpaceOnUse" x="110" y="133" width="114" height="67">
<path fill-rule="evenodd" clip-rule="evenodd" d="M110.192 133.915H223.846V199.975H110.192V133.915Z" fill="white"/>
</mask>
<g mask="url(#mask6)">
<path fill-rule="evenodd" clip-rule="evenodd" d="M124.069 186.01L110.192 177.938L185.962 133.915L223.846 155.926L148.077 199.975L124.069 186.01Z" fill="#00C169"/>
</g>
<path fill-rule="evenodd" clip-rule="evenodd" d="M118.27 178.225L149.138 196.038L218.077 156.173L187.221 138.346L118.27 178.225Z" fill="#FFE6C6"/>
<path fill-rule="evenodd" clip-rule="evenodd" d="M210.577 155.973L186.912 142.385L125.192 177.9L148.794 191.423L210.577 155.973Z" fill="#00AC65"/>
<path fill-rule="evenodd" clip-rule="evenodd" d="M161.526 148.731L199.615 170.758V185.47L174.275 200.077V185.415L136.154 163.397L161.526 148.731Z" fill="#E5AC91"/>
<path fill-rule="evenodd" clip-rule="evenodd" d="M161.526 148.731L199.615 170.555L174.275 185.077L136.154 163.262L161.526 148.731Z" fill="#FFD6A0"/>
<path fill-rule="evenodd" clip-rule="evenodd" d="M173.654 185.363V200.077L199.038 185.418V170.654L173.654 185.363Z" fill="#E5AC91"/>
<path fill-rule="evenodd" clip-rule="evenodd" d="M139.615 161.249L158.167 150.461L196.154 172.565L177.633 183.346L139.615 161.249Z" fill="#FFE6C6"/>
<path fill-rule="evenodd" clip-rule="evenodd" d="M195.577 172.385V187.078L177.115 197.769L177.116 183.111L195.577 172.385Z" fill="#FFCBA1"/>
<path fill-rule="evenodd" clip-rule="evenodd" d="M183.524 145.327C185.692 146.652 188.971 146.796 190.848 145.649C192.725 144.502 192.49 142.497 190.322 141.173C188.155 139.848 184.876 139.704 182.998 140.851C181.121 141.999 181.356 144.003 183.524 145.327Z" fill="#FFE6C6"/>
<path fill-rule="evenodd" clip-rule="evenodd" d="M185.711 156.21C187.036 156.932 189.04 157.011 190.187 156.385C191.334 155.759 191.19 154.666 189.865 153.944C188.541 153.221 186.537 153.143 185.39 153.769C184.242 154.394 184.386 155.487 185.711 156.21Z" fill="#FFE6C6"/>
<path fill-rule="evenodd" clip-rule="evenodd" d="M143.596 180.441C144.921 181.163 146.924 181.242 148.072 180.616C149.219 179.99 149.075 178.897 147.75 178.175C146.426 177.452 144.422 177.374 143.275 177.999C142.127 178.625 142.271 179.718 143.596 180.441Z" fill="#FFE6C6"/>
<path fill-rule="evenodd" clip-rule="evenodd" d="M121.793 181.096C123.961 182.421 127.24 182.565 129.117 181.418C130.995 180.27 130.759 178.266 128.592 176.942C126.424 175.617 123.145 175.473 121.267 176.62C119.39 177.768 119.626 179.771 121.793 181.096Z" fill="#FFE6C6"/>
<path fill-rule="evenodd" clip-rule="evenodd" d="M206.024 158.596C208.192 159.921 211.471 160.065 213.348 158.918C215.225 157.771 214.99 155.766 212.823 154.442C210.655 153.117 207.376 152.973 205.498 154.121C203.621 155.268 203.856 157.272 206.024 158.596Z" fill="#FFE6C6"/>
<path fill-rule="evenodd" clip-rule="evenodd" d="M144.87 193.212C147.038 194.537 150.317 194.68 152.194 193.533C154.072 192.386 153.836 190.382 151.669 189.057C149.501 187.733 146.222 187.589 144.345 188.736C142.467 189.883 142.703 191.887 144.87 193.212Z" fill="#FFE6C6"/>
<path fill-rule="evenodd" clip-rule="evenodd" d="M187.5 173.285L156.747 155.077L153.461 157.023L184.214 175.269L187.5 173.285Z" fill="#E6C190"/>
<path fill-rule="evenodd" clip-rule="evenodd" d="M177.115 174.533L153.311 160.846L150 162.76L173.804 176.423L177.115 174.533Z" fill="#E6C190"/>
<path fill-rule="evenodd" clip-rule="evenodd" d="M184.111 32.5093C184.506 37.5088 178.649 42.0649 171.053 42.6654C169.425 42.7942 167.815 42.7347 166.271 42.4891C165.747 42.4056 165.452 42.0518 165.614 41.6978C165.776 41.3445 166.332 41.1254 166.857 41.2089C168.178 41.419 169.555 41.4696 170.95 41.3593C177.451 40.8453 182.465 36.9457 182.127 32.6662C182.098 32.3053 182.519 31.978 183.067 31.9347C183.615 31.8913 184.082 32.1484 184.111 32.5093Z" fill="#8B9BA9"/>
<mask id="mask7" mask-type="alpha" maskUnits="userSpaceOnUse" x="162" y="35" width="45" height="32">
<path fill-rule="evenodd" clip-rule="evenodd" d="M164.377 66.8567L162.126 38.3923L204.433 35.0475L206.683 63.5119L164.377 66.8567Z" fill="white"/>
</mask>
<g mask="url(#mask7)">
<path fill-rule="evenodd" clip-rule="evenodd" d="M168.304 40.6098C169.389 40.524 170.319 41.0484 170.377 41.7783C170.434 42.5084 169.598 43.1722 168.513 43.258C167.428 43.3438 166.498 42.8195 166.441 42.0895C166.383 41.3595 167.219 40.6956 168.304 40.6098ZM162.445 42.4058C162.533 43.5675 162.712 45.722 162.879 47.8078C162.973 48.9768 163.752 50.0434 165.047 50.773L187.811 63.6065C190.709 65.2406 195.171 64.8879 197.776 62.8187L204.151 57.756C206.757 55.6872 206.519 52.6852 203.621 51.0511L180.857 38.2176C179.562 37.488 177.86 37.1548 176.122 37.2913C173.022 37.5347 169.818 37.7823 168.092 37.9214C166.465 38.0527 165.028 38.6547 164.015 39.4575C163.005 40.2609 162.362 41.3107 162.445 42.4058Z" fill="#6C7A88"/>
</g>
<path fill-rule="evenodd" clip-rule="evenodd" d="M163.626 39.4214C162.972 39.9427 162.473 40.5678 162.224 41.241C163.398 41.6189 164.893 41.4051 165.824 40.6651C166.383 40.2212 167.128 39.9324 167.869 39.8728C168.966 39.7844 170.633 39.6543 172.563 39.5034C173.637 39.4199 174.772 39.3311 175.893 39.2431C176.856 39.1673 177.782 39.3487 178.499 39.7542L201.276 52.6207C202.958 53.5709 203.098 55.3228 201.585 56.5257L195.207 61.5991C194.258 62.3548 194.211 63.4063 195.013 64.1189C195.899 63.8164 196.718 63.3897 197.407 62.8416L203.785 57.7682C206.391 55.6947 206.153 52.6861 203.253 51.0478L180.476 38.1814C179.181 37.4496 177.477 37.1154 175.738 37.2522C172.636 37.4954 169.431 37.7434 167.704 37.8827C166.076 38.0137 164.639 38.6172 163.626 39.4214Z" fill="#35404A"/>
<path fill-rule="evenodd" clip-rule="evenodd" d="M169.828 46.8242C169.103 47.3985 169.169 48.2311 169.975 48.6844L191.195 60.6089C191.904 61.0072 192.998 60.9221 193.638 60.4158L199.991 55.3846C200.629 54.8795 200.572 54.1459 199.862 53.7463L178.642 41.8221C177.835 41.3689 176.594 41.4671 175.868 42.0414L169.828 46.8242Z" fill="#4D5967"/>
<path fill-rule="evenodd" clip-rule="evenodd" d="M175.869 42.0419L169.829 46.8344C169.104 47.4098 169.17 48.2442 169.977 48.6985L171.437 49.5214L177.476 44.7288L181.841 47.1872L175.801 51.9796L177.261 52.8021L183.301 48.0096L189.83 51.6874L183.791 56.4795L185.251 57.302L191.29 52.5099L198.524 56.5845L199.994 55.4185C200.632 54.9123 200.575 54.1767 199.864 53.7762L193.916 50.4264L192.456 49.6036L185.927 45.9262L184.467 45.1037L178.642 41.8226C177.835 41.3686 176.594 41.4668 175.869 42.0419Z" fill="#35404A"/>
<path fill-rule="evenodd" clip-rule="evenodd" d="M198.695 40.6316L202.891 42.9754C203.086 43.084 203.341 43.1333 203.602 43.1127L205.821 42.9373L205.938 44.4169C205.951 44.5912 206.069 44.7501 206.263 44.8587L207.087 45.3189C207.281 45.4275 207.537 45.4768 207.799 45.4562L210.017 45.2808L210.134 46.7607C210.148 46.9347 210.264 47.0936 210.459 47.2022L211.503 47.7854C212.021 48.0749 212.704 48.2067 213.4 48.1517L215.914 47.9529C216.458 47.9099 216.939 47.7239 217.276 47.4579L202.672 35.749C202.672 35.7487 202.672 35.7483 202.673 35.7483L197.395 39.9055L198.695 40.6316Z" fill="#D3CDBF"/>
<path fill-rule="evenodd" clip-rule="evenodd" d="M199.485 37.6098C199.654 37.7922 199.868 37.9581 200.116 38.0947L200.116 38.0951L217.166 47.5384C217.508 47.2713 217.705 46.9242 217.676 46.5602L217.543 44.8779C217.506 44.4117 217.191 43.987 216.667 43.6967L202.407 35.7988L199.46 35.3713C198.838 36.1058 198.878 36.9618 199.485 37.6098Z" fill="#A19B8D"/>
<path fill-rule="evenodd" clip-rule="evenodd" d="M190.698 28.6006L190.642 28.6454C190.066 29.1007 189.259 29.4044 188.399 29.456C188.35 29.4588 188.301 29.4627 188.252 29.4669C186.791 29.6009 185.611 30.5438 185.672 31.5272L185.674 31.5635C185.727 32.1712 185.415 32.7836 184.808 33.2643C183.406 34.3733 180.825 33.9833 180.471 32.6089C180.417 32.3998 180.381 32.1866 180.364 31.97L180.361 31.9236C180.166 29.008 183.536 26.3124 187.872 25.9149C188.265 25.8788 188.654 25.8618 189.039 25.8629C191.108 25.8687 192.085 27.5028 190.698 28.6006ZM187.331 20.8719C178.914 21.6437 172.443 26.8215 172.82 32.4781C173.017 35.4143 174.985 37.9351 178.001 39.6254L183.396 42.6581C186.631 44.4761 191.612 44.0826 194.521 41.7792C195.801 40.766 203.638 34.5615 204.922 33.5457C207.831 31.2427 207.567 27.9029 204.332 26.0861L199.258 23.2356C196.181 21.3968 191.925 20.451 187.331 20.8719Z" fill="#4D5967"/>
<mask id="mask8" mask-type="alpha" maskUnits="userSpaceOnUse" x="172" y="19" width="37" height="26">
<path fill-rule="evenodd" clip-rule="evenodd" d="M174.323 44.9152L172.522 22.1271L206.492 19.4413L208.294 42.2294L174.323 44.9152Z" fill="white"/>
</mask>
<g mask="url(#mask8)">
<path fill-rule="evenodd" clip-rule="evenodd" d="M187.692 20.9295C180.007 21.6349 173.944 26.0267 173.232 31.1083C175.138 31.3188 177.114 30.5304 177.802 29.2272C179.392 26.2134 183.385 23.9938 187.975 23.5729C191.265 23.271 194.522 23.92 196.91 25.353L202.071 28.2664C202.853 28.708 203.315 29.341 203.371 30.0486C203.427 30.7562 203.07 31.454 202.367 32.0133L191.962 40.2813C190.735 41.2568 190.638 42.6033 191.609 43.5485C192.831 43.211 193.968 42.6702 194.893 41.9346C196.173 40.9172 204.014 34.6867 205.297 33.6667C208.207 31.3541 207.942 27.9991 204.705 26.1729L199.627 23.3078C196.547 21.4597 192.289 20.5081 187.692 20.9295Z" fill="#35404A"/>
</g>
<mask id="mask9" mask-type="alpha" maskUnits="userSpaceOnUse" x="155" y="23" width="30" height="21">
<path fill-rule="evenodd" clip-rule="evenodd" d="M157.278 43.0731L155.875 25.3272L183.27 23.1613L184.673 40.9073L157.278 43.0731Z" fill="white"/>
</mask>
<g mask="url(#mask9)">
<path fill-rule="evenodd" clip-rule="evenodd" d="M183.991 32.2917C184.02 32.6548 183.602 32.9842 183.057 33.0273C182.512 33.0704 182.047 32.8107 182.018 32.4477C181.678 28.1384 176.141 25.0483 169.676 25.5594C163.212 26.0705 158.23 29.992 158.57 34.3015C158.829 37.5686 162.152 40.274 166.841 41.034C167.363 41.1186 167.655 41.4751 167.495 41.831C167.334 42.1869 166.782 42.407 166.26 42.3224C160.782 41.4348 156.899 38.2741 156.597 34.4575C156.199 29.4229 162.02 24.8414 169.572 24.2443C177.125 23.6471 183.593 27.2571 183.991 32.2917Z" fill="#8B9BA9"/>
</g>
</svg>
