<svg width="44" height="48" viewBox="0 0 44 48" fill="none" xmlns="http://www.w3.org/2000/svg">
<path d="M22.0001 0C24.8291 0 27.5422 1.12381 29.5426 3.12419C31.5429 5.12458 32.6667 7.83769 32.6667 10.6667C32.6667 13.4956 31.5429 16.2088 29.5426 18.2091C27.5422 20.2095 24.8291 21.3333 22.0001 21.3333C19.1711 21.3333 16.458 20.2095 14.4576 18.2091C12.4572 16.2088 11.3334 13.4956 11.3334 10.6667C11.3334 7.83769 12.4572 5.12458 14.4576 3.12419C16.458 1.12381 19.1711 0 22.0001 0ZM32.6667 28.1067C32.6667 30.9333 31.9201 37.52 26.8267 44.88L24.6667 32L27.1734 26.9867C25.5201 26.8 23.7867 26.6667 22.0001 26.6667C20.2134 26.6667 18.4801 26.8 16.8267 26.9867L19.3334 32L17.1734 44.88C12.0801 37.52 11.3334 30.9333 11.3334 28.1067C4.96008 29.9733 0.666748 33.3333 0.666748 37.3333V48H16.6667H19.5734H24.4267H27.3334H43.3334V37.3333C43.3334 33.3333 39.0667 29.9733 32.6667 28.1067Z" fill="#3D3D3D"/>
</svg>
