<svg width="60" height="43" viewBox="0 0 60 43" fill="none" xmlns="http://www.w3.org/2000/svg">
<path d="M11.3334 0H59.3334V32H11.3334V0ZM35.3334 8C37.4551 8 39.49 8.84285 40.9903 10.3431C42.4906 11.8434 43.3334 13.8783 43.3334 16C43.3334 18.1217 42.4906 20.1566 40.9903 21.6569C39.49 23.1571 37.4551 24 35.3334 24C33.2117 24 31.1768 23.1571 29.6766 21.6569C28.1763 20.1566 27.3334 18.1217 27.3334 16C27.3334 13.8783 28.1763 11.8434 29.6766 10.3431C31.1768 8.84285 33.2117 8 35.3334 8ZM22.0001 5.33333C22.0001 6.74782 21.4382 8.10437 20.438 9.10457C19.4378 10.1048 18.0812 10.6667 16.6667 10.6667V21.3333C18.0812 21.3333 19.4378 21.8952 20.438 22.8954C21.4382 23.8956 22.0001 25.2522 22.0001 26.6667H48.6667C48.6667 25.2522 49.2286 23.8956 50.2288 22.8954C51.229 21.8952 52.5856 21.3333 54.0001 21.3333V10.6667C52.5856 10.6667 51.229 10.1048 50.2288 9.10457C49.2286 8.10437 48.6667 6.74782 48.6667 5.33333H22.0001ZM0.666748 10.6667H6.00008V37.3333H48.6667V42.6667H0.666748V10.6667Z" fill="#3D3D3D"/>
</svg>
