<svg width="44" height="55" viewBox="0 0 44 55" fill="none" xmlns="http://www.w3.org/2000/svg">
<path d="M5.08333 30.4167L8.70833 19.5417H35.2917L38.9167 30.4167H5.08333ZM35.2917 42.5C34.3303 42.5 33.4082 42.1181 32.7284 41.4383C32.0486 40.7585 31.6667 39.8364 31.6667 38.875C31.6667 37.9136 32.0486 36.9916 32.7284 36.3118C33.4082 35.6319 34.3303 35.25 35.2917 35.25C36.2531 35.25 37.1751 35.6319 37.8549 36.3118C38.5347 36.9916 38.9167 37.9136 38.9167 38.875C38.9167 39.8364 38.5347 40.7585 37.8549 41.4383C37.1751 42.1181 36.2531 42.5 35.2917 42.5ZM8.70833 42.5C7.74692 42.5 6.82489 42.1181 6.14507 41.4383C5.46525 40.7585 5.08333 39.8364 5.08333 38.875C5.08333 37.9136 5.46525 36.9916 6.14507 36.3118C6.82489 35.6319 7.74692 35.25 8.70833 35.25C9.66974 35.25 10.5918 35.6319 11.2716 36.3118C11.9514 36.9916 12.3333 37.9136 12.3333 38.875C12.3333 39.8364 11.9514 40.7585 11.2716 41.4383C10.5918 42.1181 9.66974 42.5 8.70833 42.5ZM38.7233 18.3333C38.24 16.9317 36.8867 15.9167 35.2917 15.9167H8.70833C7.11333 15.9167 5.76 16.9317 5.27667 18.3333L0.25 32.8334V52.1667C0.25 52.8076 0.504612 53.4223 0.957825 53.8755C1.41104 54.3287 2.02573 54.5834 2.66667 54.5834H5.08333C5.72427 54.5834 6.33896 54.3287 6.79217 53.8755C7.24539 53.4223 7.5 52.8076 7.5 52.1667V49.75H36.5V52.1667C36.5 52.8076 36.7546 53.4223 37.2078 53.8755C37.661 54.3287 38.2757 54.5834 38.9167 54.5834H41.3333C41.9743 54.5834 42.589 54.3287 43.0422 53.8755C43.4954 53.4223 43.75 52.8076 43.75 52.1667V32.8334L38.7233 18.3333ZM9.91667 11.0833C10.8781 11.0833 11.8001 10.7014 12.4799 10.0216C13.1597 9.34179 13.5417 8.41976 13.5417 7.45835C13.5417 5.04168 9.91667 0.93335 9.91667 0.93335C9.91667 0.93335 6.29167 5.04168 6.29167 7.45835C6.29167 8.41976 6.67358 9.34179 7.3534 10.0216C8.03322 10.7014 8.95526 11.0833 9.91667 11.0833ZM22 11.0833C22.9614 11.0833 23.8834 10.7014 24.5633 10.0216C25.2431 9.34179 25.625 8.41976 25.625 7.45835C25.625 5.04168 22 0.93335 22 0.93335C22 0.93335 18.375 5.04168 18.375 7.45835C18.375 8.41976 18.7569 9.34179 19.4367 10.0216C20.1166 10.7014 21.0386 11.0833 22 11.0833ZM34.0833 11.0833C35.0447 11.0833 35.9668 10.7014 36.6466 10.0216C37.3264 9.34179 37.7083 8.41976 37.7083 7.45835C37.7083 5.04168 34.0833 0.93335 34.0833 0.93335C34.0833 0.93335 30.4583 5.04168 30.4583 7.45835C30.4583 8.41976 30.8403 9.34179 31.5201 10.0216C32.1999 10.7014 33.1219 11.0833 34.0833 11.0833Z" fill="#333333"/>
</svg>
