<svg width="12" height="12" viewBox="0 0 12 12" fill="none" xmlns="http://www.w3.org/2000/svg">
<path fill-rule="evenodd" clip-rule="evenodd" d="M5.42649 0.753553C5.53797 0.753379 5.6579 0.753432 5.78732 0.753491L6.00063 0.753553C7.70945 0.753553 7.91198 0.759687 8.58679 0.790354C9.21079 0.818887 9.54947 0.923155 9.77507 1.01076C10.0737 1.12676 10.2867 1.26543 10.5105 1.48943C10.7345 1.71343 10.8732 1.92677 10.9895 2.22544C11.0771 2.45077 11.1815 2.78944 11.2099 3.41345C11.2405 4.08812 11.2472 4.29079 11.2472 5.99881C11.2472 7.70683 11.2405 7.90949 11.2099 8.58417C11.1813 9.20817 11.0771 9.54684 10.9895 9.77218C10.8735 10.0709 10.7345 10.2835 10.5105 10.5074C10.2865 10.7314 10.0739 10.8701 9.77507 10.9861C9.54973 11.0741 9.21079 11.1781 8.58679 11.2066C7.91211 11.2373 7.70945 11.2439 6.00063 11.2439C4.29168 11.2439 4.08914 11.2373 3.41447 11.2066C2.79046 11.1778 2.45179 11.0735 2.22605 10.9859C1.92739 10.8699 1.71405 10.7313 1.49005 10.5073C1.26604 10.2833 1.12738 10.0705 1.01111 9.77165C0.923508 9.54631 0.819107 9.20764 0.790707 8.58363C0.76004 7.90896 0.753906 7.70629 0.753906 5.99721C0.753906 4.28812 0.76004 4.08652 0.790707 3.41185C0.81924 2.78784 0.923508 2.44917 1.01111 2.22357C1.12711 1.9249 1.26604 1.71156 1.49005 1.48756C1.71405 1.26356 1.92739 1.12489 2.22605 1.00862C2.45166 0.920622 2.79046 0.81662 3.41447 0.787953C4.00487 0.761287 4.23368 0.753286 5.42649 0.751953V0.753553ZM9.41693 1.81623C8.99293 1.81623 8.64892 2.15983 8.64892 2.58397C8.64892 3.00798 8.99293 3.35198 9.41693 3.35198C9.84093 3.35198 10.1849 3.00798 10.1849 2.58397C10.1849 2.15997 9.84093 1.81596 9.41693 1.81596V1.81623ZM2.71393 6.00027C2.71393 4.18523 4.18547 2.71364 6.00049 2.71357C7.81558 2.71357 9.28679 4.18519 9.28679 6.00027C9.28679 7.81536 7.81571 9.28631 6.00063 9.28631C4.18554 9.28631 2.71393 7.81536 2.71393 6.00027Z" fill="white"/>
</svg>
