<svg xmlns="http://www.w3.org/2000/svg"><defs><clipPath id="a"><path transform="matrix(1 0 0 -1 0 26)" d="M0 0h26v26H0z"/></clipPath></defs><symbol id="body" viewBox="0 0 27 21"><path d="M25.889 5.061c-.118 0-.238.017-.359.05l-1.363.376-1.414-3.447C22.352 1.063 21.167.269 20.11.269H6.87c-1.056 0-2.24.794-2.642 1.77L2.815 5.483l-1.345-.37a1.351 1.351 0 0 0-.359-.05C.467 5.061 0 5.552 0 6.23v.803C0 7.826.644 8.47 1.435 8.47h.154l-.228.556C.988 9.933.685 11.47.685 12.45v6.848c0 .79.644 1.434 1.435 1.434h1.874c.792 0 1.435-.643 1.435-1.434v-1.71h16.123v1.71c0 .79.644 1.434 1.435 1.434h1.874c.791 0 1.435-.643 1.435-1.434v-6.848c0-.98-.303-2.516-.676-3.424l-.228-.556h.173c.791 0 1.435-.643 1.435-1.435v-.803c0-.678-.467-1.17-1.111-1.17zM3.844 7.69l2.14-5.214c.24-.584.953-1.062 1.584-1.062h11.845c.631 0 1.344.478 1.584 1.062l2.14 5.214c.24.584-.08 1.062-.712 1.062H4.556c-.631 0-.951-.478-.712-1.062zm4.778 6.594a.576.576 0 0 1-.574.574H3.982a.576.576 0 0 1-.574-.574v-1.951c0-.316.259-.574.574-.574h4.066c.316 0 .574.258.574.574v1.951zm14.912 0a.576.576 0 0 1-.574.574h-4.066a.576.576 0 0 1-.573-.574v-1.951c0-.316.258-.574.573-.574h4.066c.316 0 .574.258.574.574v1.951z"/></symbol><symbol id="chassis" viewBox="0 0 22 24"><path d="M5.282 18.404c-.177-.974-1.043-1.564-2.35-1.564-1.471 0-2.385.746-2.385 1.946v3.268c0 1.2.914 1.946 2.385 1.946 1.307 0 2.173-.59 2.35-1.564.67-.085 1.075-.485 1.075-1.088v-.168h2.919A1.973 1.973 0 0 0 11 22.198c.741 0 1.388-.412 1.725-1.018h2.918v.168c0 .603.405 1.003 1.075 1.088.177.974 1.043 1.564 2.35 1.564 1.471 0 2.385-.746 2.385-1.946v-3.268c0-1.2-.914-1.946-2.385-1.946-1.307 0-2.173.59-2.35 1.564-.67.085-1.075.486-1.075 1.088v.168h-2.754a1.98 1.98 0 0 0-1.128-1.255V7.418a1.61 1.61 0 0 0 .848-1.417v-.929c0-.016-.002-.031-.003-.047a1.96 1.96 0 0 0 .312-.685h2.725v.168c0 .602.405 1.002 1.076 1.088.176.973 1.042 1.563 2.35 1.563 1.47 0 2.384-.745 2.384-1.946V1.946C21.453.746 20.54 0 19.068 0c-1.307 0-2.173.59-2.35 1.564-.67.085-1.075.485-1.075 1.087v.168h-2.985A1.971 1.971 0 0 0 11 1.912c-.695 0-1.306.362-1.658.907H6.357v-.168c0-.602-.405-1.002-1.075-1.087C5.105.59 4.24 0 2.932 0 1.462 0 .547.745.547 1.946v3.267c0 1.2.914 1.946 2.385 1.946 1.308 0 2.173-.59 2.35-1.563.67-.086 1.075-.486 1.075-1.088V4.34h2.726c.06.25.166.482.311.685l-.002.047v.93c0 .611.344 1.144.848 1.416v10.987c-.54.227-.959.688-1.129 1.255H6.357v-.168c0-.602-.405-1.003-1.075-1.088z"/></symbol><symbol id="flash" viewBox="0 0 24 24"><path d="M18.762 8.231A.4.4 0 0 0 18.4 8h-4.74L18.338.614A.4.4 0 0 0 18 0h-6.4a.4.4 0 0 0-.358.221l-6 12a.4.4 0 0 0 .358.579h4.113L5.231 23.445a.4.4 0 0 0 .675.413l12.8-15.2a.4.4 0 0 0 .056-.427z"/></symbol><symbol id="gear" viewBox="0 0 26 26"><g clip-path="url(#a)"><path d="M13 8.125A4.88 4.88 0 0 0 8.125 13 4.88 4.88 0 0 0 13 17.875 4.88 4.88 0 0 0 17.875 13 4.88 4.88 0 0 0 13 8.125zm0 8.023A3.152 3.152 0 0 1 9.852 13 3.152 3.152 0 0 1 13 9.852 3.152 3.152 0 0 1 16.148 13 3.152 3.152 0 0 1 13 16.148z"/><path d="M26 15.425v-4.85l-3.842-.586a9.596 9.596 0 0 0-.553-1.336l2.302-3.13-3.43-3.43-3.13 2.302a9.604 9.604 0 0 0-1.336-.553L15.425 0h-4.85l-.586 3.842a9.59 9.59 0 0 0-1.336.553l-3.13-2.302-3.43 3.43 2.302 3.13a9.6 9.6 0 0 0-.553 1.336L0 10.575v4.85l3.842.586c.15.459.336.905.553 1.336l-2.302 3.13 3.43 3.43 3.13-2.302c.43.217.877.402 1.336.553L10.575 26h4.85l.586-3.842a9.61 9.61 0 0 0 1.336-.553l3.13 2.302 3.43-3.43-2.302-3.13a9.61 9.61 0 0 0 .553-1.336L26 15.425zm-13 3.973A6.406 6.406 0 0 1 6.602 13 6.406 6.406 0 0 1 13 6.602 6.406 6.406 0 0 1 19.398 13 6.406 6.406 0 0 1 13 19.398z"/></g></symbol><symbol id="inst" viewBox="0 0 12 12"><path fill-rule="evenodd" clip-rule="evenodd" d="M5.426.754h.575c1.708 0 1.911.006 2.586.036.624.029.962.133 1.188.22.299.117.512.255.736.48.224.223.362.437.479.735.087.226.191.564.22 1.188.03.675.037.878.037 2.586 0 1.708-.006 1.91-.037 2.585-.029.624-.133.963-.22 1.188a1.979 1.979 0 0 1-.48.735 1.979 1.979 0 0 1-.735.48c-.225.087-.564.191-1.188.22-.675.03-.878.037-2.586.037-1.71 0-1.912-.007-2.587-.037-.624-.03-.962-.134-1.188-.221a1.982 1.982 0 0 1-.736-.479 1.983 1.983 0 0 1-.479-.735C.924 9.546.82 9.208.791 8.584.76 7.909.754 7.706.754 5.997S.76 4.087.79 3.412c.028-.624.133-.963.22-1.188.116-.3.255-.512.48-.736.223-.224.436-.363.735-.48.226-.087.564-.191 1.188-.22.59-.027.82-.035 2.012-.036v.002zm3.99 1.062a.768.768 0 1 0 0 1.537.768.768 0 0 0 0-1.537zM2.715 6a3.287 3.287 0 1 1 6.574 0 3.287 3.287 0 0 1-6.574 0z"/></symbol><symbol id="repairkit" viewBox="0 0 24 24"><path d="M22.84 17.228a3.94 3.94 0 0 0-2.805-1.162c-.552 0-1.086.113-1.578.326a1.493 1.493 0 0 0-.182-.223l-4.955-4.955 5.711-5.711c.087.016.175.025.265.025a1.62 1.62 0 0 0 1.146-.493l1.173-1.173a.629.629 0 0 0 .148-.25.575.575 0 0 0-.16-.587L20.317 1.74a.594.594 0 0 0-.426-.188.622.622 0 0 0-.42.175l-1.169 1.168c-.404.404-.561.929-.47 1.414l-5.709 5.708-4.5-4.5a3.96 3.96 0 0 0 .313-1.55 3.94 3.94 0 0 0-1.162-2.805A3.942 3.942 0 0 0 3.969 0c-.354 0-.706.047-1.046.14a.45.45 0 0 0-.311.313c-.04.153.005.31.124.429 0 0 1.4 1.41 1.868 1.877.049.05.048.166.042.208l-.005.031c-.05.55-.151 1.22-.229 1.414-.196.08-.876.182-1.435.232l-.024.003a.299.299 0 0 1-.237-.09C2.228 4.07.884 2.737.884 2.737a.456.456 0 0 0-.327-.147.445.445 0 0 0-.418.338 3.98 3.98 0 0 0 1.024 3.844 3.941 3.941 0 0 0 2.805 1.162c.542 0 1.066-.108 1.55-.313l4.5 4.5-2.474 2.475a1.565 1.565 0 0 0-1.787.303l-.56.56-.004.004a1.556 1.556 0 0 0-1.201.453L.887 19.02a1.569 1.569 0 0 0 0 2.217l1.214 1.213c.295.295.688.458 1.108.458.42 0 .813-.163 1.108-.458l3.104-3.104c.33-.33.48-.77.454-1.202l.003-.003.56-.56a1.568 1.568 0 0 0 .303-1.788l2.474-2.474 4.955 4.954c.07.07.145.131.224.185a3.973 3.973 0 0 0 .835 4.38 3.977 3.977 0 0 0 3.851 1.022.45.45 0 0 0 .311-.313.438.438 0 0 0-.125-.428s-1.398-1.41-1.867-1.878c-.049-.05-.049-.166-.042-.209l.005-.03c.05-.551.151-1.22.229-1.414.195-.08.875-.182 1.435-.232l.024-.003a.298.298 0 0 1 .237.09c.487.487 1.831 1.82 1.831 1.82.12.121.245.147.327.147a.444.444 0 0 0 .418-.338 3.98 3.98 0 0 0-1.023-3.844z"/></symbol><symbol id="seat" viewBox="0 0 28 28"><path d="M18.102 0H9.898a1.64 1.64 0 0 0-1.64 1.64v1.696c0 .906.734 1.64 1.64 1.64h8.204a1.64 1.64 0 0 0 1.64-1.64V1.64A1.64 1.64 0 0 0 18.102 0zM3.336 26.36V28h21.328v-1.64a3.281 3.281 0 0 0-3.281-3.282H6.617a3.281 3.281 0 0 0-3.281 3.281zM11.54 18.156h4.92v3.282h-4.92v-3.282zM11.54 6.617h4.92v9.899h-4.92V6.617zM5.217 12.459l1.274 8.979h3.407V6.617h-1.16l-2.361 2.36a4.12 4.12 0 0 0-1.16 3.48zM18.102 6.617v14.82h3.407l1.274-8.978a4.12 4.12 0 0 0-1.16-3.48l-2.361-2.362h-1.16z"/></symbol><symbol id="vk" viewBox="0 0 30.011 17.123"><path d="M27.625 5.832c-3.031 4.031-3.359 3.656-.859 5.984 2.406 2.234 2.906 3.313 2.984 3.453 0 0 1 1.75-1.109 1.766l-4 .063c-.859.172-2-.609-2-.609-1.5-1.031-2.906-3.703-4-3.359 0 0-1.125.359-1.094 2.766.016.516-.234.797-.234.797s-.281.297-.828.344h-1.797c-3.953.25-7.438-3.391-7.438-3.391S3.437 9.707.093 1.848c-.219-.516.016-.766.016-.766S.343.785 1 .785L5.281.754c.406.063.688.281.688.281s.25.172.375.5c.703 1.75 1.609 3.344 1.609 3.344 1.563 3.219 2.625 3.766 3.234 3.438 0 0 .797-.484.625-4.375-.063-1.406-.453-2.047-.453-2.047-.359-.485-1.031-.625-1.328-.672-.234-.031.156-.594.672-.844.766-.375 2.125-.391 3.734-.375 1.266.016 1.625.094 2.109.203 1.484.359.984 1.734.984 5.047 0 1.063-.203 2.547.563 3.031.328.219 1.141.031 3.141-3.375 0 0 .938-1.625 1.672-3.516.125-.344.391-.484.391-.484s.25-.141.594-.094l4.5-.031c1.359-.172 1.578.453 1.578.453.234.641-.501 2.141-2.344 4.594z"/></symbol></svg>